<?xml version="1.0" encoding="UTF-8" standalone="no"?>
<!-- Created with Inkscape (http://www.inkscape.org/) -->

<svg
   xmlns:dc="http://purl.org/dc/elements/1.1/"
   xmlns:cc="http://creativecommons.org/ns#"
   xmlns:rdf="http://www.w3.org/1999/02/22-rdf-syntax-ns#"
   xmlns:svg="http://www.w3.org/2000/svg"
   xmlns="http://www.w3.org/2000/svg"
   xmlns:xlink="http://www.w3.org/1999/xlink"
   xmlns:sodipodi="http://sodipodi.sourceforge.net/DTD/sodipodi-0.dtd"
   xmlns:inkscape="http://www.inkscape.org/namespaces/inkscape"
   width="207.69533mm"
   height="231.24159mm"
   viewBox="0 0 207.69533 231.24159"
   version="1.1"
   id="svg8"
   inkscape:version="0.92.4 (5da689c313, 2019-01-14)"
   sodipodi:docname="disegno-1.svg">
  <defs
     id="defs2">
    <linearGradient
       inkscape:collect="always"
       id="linearGradient1049">
      <stop
         style="stop-color:#000000;stop-opacity:0.14354067"
         offset="0"
         id="stop1045" />
      <stop
         style="stop-color:#000000;stop-opacity:0;"
         offset="1"
         id="stop1047" />
    </linearGradient>
    <linearGradient
       inkscape:collect="always"
       id="linearGradient1039">
      <stop
         style="stop-color:#000000;stop-opacity:0.10526316"
         offset="0"
         id="stop1035" />
      <stop
         style="stop-color:#ffffff;stop-opacity:0;"
         offset="1"
         id="stop1037" />
    </linearGradient>
    <linearGradient
       inkscape:collect="always"
       id="linearGradient845">
      <stop
         style="stop-color:#000000;stop-opacity:0.10526316"
         offset="0"
         id="stop841" />
      <stop
         style="stop-color:#f8f8f8;stop-opacity:0;"
         offset="1"
         id="stop843" />
    </linearGradient>
    <linearGradient
       inkscape:collect="always"
       id="linearGradient835">
      <stop
         style="stop-color:#f8f8f8;stop-opacity:1"
         offset="0"
         id="stop831" />
      <stop
         style="stop-color:#e8e8e8;stop-opacity:1"
         offset="1"
         id="stop833" />
    </linearGradient>
    <linearGradient
       inkscape:collect="always"
       xlink:href="#linearGradient835"
       id="linearGradient837"
       x1="86.328056"
       y1="60.466454"
       x2="84.457161"
       y2="248.62421"
       gradientUnits="userSpaceOnUse"
       gradientTransform="translate(-159.13663,1.7791743)" />
    <linearGradient
       inkscape:collect="always"
       xlink:href="#linearGradient845"
       id="linearGradient847"
       x1="-3.8530807"
       y1="59.84021"
       x2="-48.380959"
       y2="99.696426"
       gradientUnits="userSpaceOnUse" />
    <filter
       inkscape:label="In and Out"
       inkscape:menu="Shadows and Glows"
       inkscape:menu-tooltip="Inner colorized shadow, outer black shadow"
       style="color-interpolation-filters:sRGB"
       id="filter933">
      <feGaussianBlur
         result="result0"
         in="SourceAlpha"
         stdDeviation="4"
         id="feGaussianBlur927" />
      <feOffset
         dx="5"
         dy="5"
         result="result4"
         id="feOffset929" />
      <feComposite
         in="SourceGraphic"
         in2="result4"
         operator="xor"
         result="result3"
         id="feComposite931" />
    </filter>
    <linearGradient
       inkscape:collect="always"
       xlink:href="#linearGradient835"
       id="linearGradient1025"
       gradientUnits="userSpaceOnUse"
       gradientTransform="translate(-159.13663,1.7791743)"
       x1="86.328056"
       y1="60.466454"
       x2="84.457161"
       y2="248.62421" />
    <linearGradient
       inkscape:collect="always"
       xlink:href="#linearGradient1039"
       id="linearGradient1041"
       x1="-35.532642"
       y1="153.08148"
       x2="-37.66103"
       y2="182.75261"
       gradientUnits="userSpaceOnUse" />
    <linearGradient
       inkscape:collect="always"
       xlink:href="#linearGradient1049"
       id="linearGradient1051"
       x1="-42.543701"
       y1="161.21924"
       x2="-40.905796"
       y2="231.90079"
       gradientUnits="userSpaceOnUse" />
  </defs>
  <sodipodi:namedview
     id="base"
     pagecolor="#ffffff"
     bordercolor="#666666"
     borderopacity="1.0"
     inkscape:pageopacity="0.0"
     inkscape:pageshadow="2"
     inkscape:zoom="0.24748737"
     inkscape:cx="-1091.4381"
     inkscape:cy="684.45603"
     inkscape:document-units="mm"
     inkscape:current-layer="layer1"
     showgrid="false"
     fit-margin-top="0"
     fit-margin-left="0"
     fit-margin-right="0"
     fit-margin-bottom="0"
     inkscape:window-width="1920"
     inkscape:window-height="1017"
     inkscape:window-x="-8"
     inkscape:window-y="-8"
     inkscape:window-maximized="1" />
  <metadata
     id="metadata5">
    <rdf:RDF>
      <cc:Work
         rdf:about="">
        <dc:format>image/svg+xml</dc:format>
        <dc:type
           rdf:resource="http://purl.org/dc/dcmitype/StillImage" />
        <dc:title></dc:title>
      </cc:Work>
    </rdf:RDF>
  </metadata>
  <g
     inkscape:groupmode="layer"
     id="layer2"
     inkscape:label="Livello 2"
     transform="translate(162.90514,-40.570078)">
    <rect
       id="rect21"
       width="144.59279"
       height="192.70132"
       x="-148.44586"
       y="59.84021"
       style="fill:url(#linearGradient1025);fill-opacity:1;stroke:#f8f8f8;stroke-width:0.26458332;stroke-opacity:1;" />
    <path
       inkscape:connector-curvature="0"
       id="path1059"
       d="m -312.45499,128.9855 -21.07256,-0.88478 1.04745,-191.161502 142.79908,-2.194668 0.0143,90.87415 -120.76204,2.46162 z"
       style="fill:#ffffff;fill-opacity:1;stroke:none;stroke-width:0.26458332px;stroke-linecap:butt;stroke-linejoin:miter;stroke-opacity:1" />
  </g>
  <g
     inkscape:label="Livello 1"
     inkscape:groupmode="layer"
     id="layer1"
     transform="translate(162.90514,-40.570078)">
    <rect
       style="fill:url(#linearGradient847);fill-opacity:1;stroke-width:0.26458332;"
       id="rect839"
       width="69.096329"
       height="63.66872"
       x="-72.949409"
       y="59.84021" />
    <rect
       style="fill:#ffffff;fill-opacity:1;stroke:none;stroke-width:1;stroke-miterlimit:4;stroke-dasharray:none;stroke-opacity:0;"
       id="rect1012"
       width="167.77003"
       height="107.79429"
       x="-124.60084"
       y="153.17598" />
    <g
       id="g965"
       transform="translate(-159.48962,3.0526164)"
       style="">
      <path
         style="fill:#cfcfd0;stroke-width:0.81048334;"
         d="m 37.522854,261.40385 c -1.002974,-0.19635 -1.823588,-0.69635 -1.823588,-1.11111 0,-0.41477 -0.547076,-0.75412 -1.215725,-0.75412 -0.816277,0 -1.215725,-0.8164 -1.215725,-2.48473 0,0 -0.151897,-2.49643 -0.846465,-7.24107 l 0.220612,-50.18278 c 0.121336,-27.60054 0.524426,-50.48657 0.895755,-50.85783 0.371328,-0.37128 27.998678,-0.77302 61.394109,-0.89276 l 60.718973,-0.21771 1.43597,-0.2194 c 0.10175,0.0856 10.3059,0.26798 22.67591,0.40524 12.37,0.13728 22.94681,0.54465 23.50401,0.90528 0.79411,0.51395 1.01311,12.55873 1.01311,55.72073 0,46.96676 -0.16887,55.06503 -1.14819,55.06503 -0.6315,0 -1.30011,0.4559 -1.48579,1.01311 -0.26681,0.80059 -17.32419,1.03366 -81.3185,1.11111 -44.539484,0.0539 -81.801493,-0.0626 -82.804466,-0.25899 z m 165.132586,-5.71502 c -0.002,-1.82118 -1.15159,-3.11453 -6.28124,-7.07145 -12.6295,-9.74217 -48.83399,-36.87808 -51.98081,-38.96055 -3.14501,-2.08127 -5.25107,-2.14626 -4.52359,-0.13959 0.40224,1.10954 -7.47063,6.33203 -11.69375,7.75708 -3.70703,1.2509 -6.61064,1.17028 -10.95339,-0.30412 -5.42206,-1.84084 -12.72836,-6.26223 -12.27982,-7.4311 0.86624,-2.25737 -1.54809,-1.86635 -6.283033,1.01759 -2.756041,1.67865 -14.858356,9.69823 -26.894033,17.8213 -39.620382,26.74043 -36.876991,24.71253 -36.876991,27.25926 v 2.28041 h 83.885027 83.88502 l -0.003,-2.22883 z M 53.97988,237.25033 c 3.812243,-2.67459 9.470311,-6.77767 12.573484,-9.11794 3.103172,-2.34027 5.834632,-4.25503 6.069909,-4.25503 0.235277,0 2.393352,-1.48403 4.795723,-3.29784 2.402369,-1.8138 7.763965,-5.56596 11.91466,-8.33812 4.150696,-2.77217 7.662423,-5.64111 7.803844,-6.37544 0.16157,-0.83899 -1.311945,-2.48411 -3.965176,-4.42699 -2.322261,-1.70051 -13.924236,-10.31838 -25.782158,-19.1508 -11.857922,-8.83244 -22.653991,-16.85623 -23.991263,-17.83064 -3.089638,-2.25129 -6.889154,-6.18117 -6.889154,-7.12552 0,-2.57994 2.073817,-1.19922 42.955616,28.59935 16.624618,12.11761 30.875995,21.96601 36.542955,25.25298 5.57321,3.23257 9.84288,2.97209 15.42947,-0.94133 6.42067,-4.4977 17.38902,-13.01189 29.88639,-23.19936 36.47425,-29.73264 39.71368,-32.14259 39.71368,-29.54465 0,1.54381 -6.29184,7.23548 -26.3407,23.82815 -28.35215,23.46455 -27.96168,23.12425 -27.96168,24.36913 0,0.62985 1.5852,2.33405 3.52268,3.78712 10.2973,7.7228 13.19102,9.95217 14.17549,10.92099 0.59579,0.58632 2.41938,2.06142 4.05242,3.278 1.63303,1.21657 3.15151,2.41705 3.37439,2.66773 0.22289,0.25067 5.87601,4.77857 12.5625,10.06201 6.68648,5.28343 13.28752,10.66054 14.66897,11.94912 l 2.51173,2.34288 0.52759,-6.24132 c 0.29017,-3.43273 0.52758,-26.0634 0.52758,-50.29038 V 150.12337 H 118.77381 34.888783 v 44.04906 c 0,24.22698 0.234661,46.8251 0.52147,50.21803 l 0.521469,6.16898 5.558403,-4.22311 c 3.057121,-2.3227 8.677511,-6.4114 12.489755,-9.086 z"
         id="path977"
         inkscape:connector-curvature="0"
         sodipodi:nodetypes="cssccscsccccsscsccsscssscssccccccssccccccsscsssssccccscccscccssccc" />
      <path
         style="fill:#e19f9f;stroke-width:0.81048334;"
         d="m 37.320233,259.94213 c -3.052936,-0.88298 10.218398,-1.05899 81.453577,-1.08021 74.52013,-0.0222 84.64729,0.11722 81.45357,1.12131 -5.16399,1.62353 -157.284319,1.58515 -162.907147,-0.0411 z m -4.204314,-5.38467 -0.253344,-3.52891 -10.536284,-0.4424 -10.536283,-0.44238 10.738904,-0.16548 10.738904,-0.16547 v -49.57456 c 0,-27.26601 0.200224,-49.37434 0.444943,-49.12962 0.555806,0.5558 0.616545,106.01769 0.06138,106.57286 -0.222681,0.22268 -0.51888,-1.18314 -0.65822,-3.12404 z m 170.097601,-0.16717 c -0.36256,-1.71718 -0.45334,-3.32801 -0.20171,-3.57964 0.91714,-0.91714 1.36964,0.53198 1.11823,3.58114 l -0.25729,3.12062 z m -40.37176,-31.93128 c -1.00813,-1.28548 -0.97947,-1.31414 0.30601,-0.30601 0.78009,0.6118 1.41834,1.25005 1.41834,1.41835 0,0.66706 -0.66556,0.23772 -1.72435,-1.11234 z m -81.755428,-1.33658 c 0,-0.2009 3.928826,-3.08177 8.730729,-6.40192 9.830928,-6.79736 11.055899,-7.98426 10.375729,-10.05324 -0.263483,-0.80149 -7.496787,-6.51268 -16.074002,-12.69155 -31.533804,-22.71637 -46.578499,-34.25374 -43.788132,-33.57994 0.541317,0.13072 12.759353,8.83911 27.151191,19.35199 14.391837,10.51287 28.902358,20.90732 32.245601,23.09877 3.343242,2.19145 6.260982,4.1748 6.483872,4.40743 0.22288,0.23264 2.78829,1.95655 5.70092,3.83092 9.38963,6.04255 12.47719,6.31141 19.2597,1.67707 7.68889,-5.25364 23.56783,-17.66976 44.58868,-34.86495 11.84818,-9.6919 21.7311,-17.4327 21.96201,-17.20178 0.54569,0.54569 -2.39277,3.21778 -13.32198,12.1144 -4.91569,4.00148 -11.84532,9.71665 -15.39918,12.70038 -3.55386,2.98373 -10.47346,8.64688 -15.37688,12.58476 -11.74813,9.43481 -11.77561,9.76739 -1.45737,17.6369 4.10186,3.12842 7.9314,6.20964 8.51007,6.84716 0.57867,0.63754 -0.77146,-0.1954 -3.00028,-1.85094 -6.30059,-4.68001 -15.68238,-11.06424 -17.00508,-11.57181 -0.69469,-0.26658 -2.21314,0.55878 -3.62441,1.97004 -3.33335,3.33335 -10.26818,6.6464 -13.91215,6.6464 -3.53705,0 -16.11357,-6.09907 -16.11357,-7.81439 0,-2.71869 -5.70101,-0.0671 -18.843739,8.76423 -3.900451,2.62095 -7.091729,4.60098 -7.091729,4.40007 z M 203.13821,159.02084 c -0.30879,-2.32772 -0.19055,-4.66984 0.27618,-5.47076 0.60684,-1.04136 0.82243,0.002 0.84076,4.07026 0.0135,3.00892 -0.11073,5.47077 -0.27618,5.47077 -0.16545,0 -0.5438,-1.83162 -0.84076,-4.07027 z M 96.282894,148.70511 c 43.023366,-0.15452 59.367906,-0.46223 59.367906,-1.11768 0,-0.66128 0.29021,-0.66362 1.07933,-0.009 0.71003,0.58927 8.26673,0.97476 22.08567,1.12664 11.55349,0.12698 -15.64777,0.22685 -60.44724,0.22192 -53.754276,-0.006 -61.264781,-0.0815 -22.085666,-0.22218 z M 38.67065,130.03736 c -0.18337,-0.31972 -0.585722,-2.4049 -0.894116,-4.63373 -0.933115,-6.74381 -1.252078,-8.53112 -3.325063,-18.63198 -1.096776,-5.34416 -1.994138,-10.150812 -1.994138,-10.68144 0,-1.230289 0.22128,-1.27461 43.766099,-8.76589 23.215476,-3.993901 40.240358,-7.019142 43.103628,-7.659312 l 2.9847,-0.667321 0.52471,3.346131 c 1.17351,7.483706 2.11339,12.832228 4.03671,22.971652 0.77915,4.10755 1.22325,7.97222 0.98689,8.58816 -0.27638,0.72024 -3.56515,1.63437 -9.21566,2.56154 -4.83225,0.7929 -13.16253,2.2961 -18.51172,3.34045 -5.34919,1.04435 -13.190616,2.44421 -17.425391,3.11081 -8.56073,1.34755 -28.183853,4.77788 -34.445541,6.02145 -7.434159,1.47642 -9.255199,1.68517 -9.591108,1.09948 z m 1.634685,-3.56997 c -0.258727,-0.64655 -0.450777,-0.4545 -0.489667,0.48967 -0.03519,0.85438 0.156365,1.33307 0.425682,1.06376 0.269316,-0.26932 0.29811,-0.96836 0.06399,-1.55343 z m 3.279259,1.28327 c -0.269317,-0.26932 -0.968359,-0.29811 -1.553427,-0.064 -0.646549,0.25873 -0.4545,0.45078 0.489667,0.48967 0.854384,0.0352 1.333076,-0.15637 1.06376,-0.42569 z m 10.973834,-1.66293 c -0.548724,-0.22201 -1.642876,-0.23552 -2.43145,-0.03 -0.788574,0.20549 -0.339618,0.38714 0.99768,0.40365 1.337297,0.0165 1.982494,-0.15161 1.43377,-0.37362 z m 4.425349,-0.76852 c -0.269317,-0.26932 -0.968359,-0.29811 -1.553427,-0.064 -0.646549,0.25873 -0.454499,0.45078 0.489667,0.48967 0.854384,0.0352 1.333076,-0.15637 1.06376,-0.42569 z m 4.052416,-0.81049 c -0.269317,-0.26931 -0.968359,-0.29811 -1.553426,-0.064 -0.64655,0.25872 -0.4545,0.45077 0.489667,0.48966 0.854384,0.0352 1.333076,-0.15636 1.063759,-0.42568 z m -23.541341,-2.09375 c -0.258727,-0.64654 -0.450777,-0.45449 -0.489667,0.48967 -0.03519,0.85439 0.156365,1.33308 0.425682,1.06376 0.269316,-0.26932 0.29811,-0.96836 0.06399,-1.55343 z m 27.593758,1.28327 c -0.269317,-0.26932 -0.968359,-0.29811 -1.553427,-0.064 -0.646549,0.25873 -0.454499,0.45078 0.489668,0.48967 0.854384,0.0352 1.333075,-0.15637 1.063759,-0.42568 z m 10.536283,-1.62097 c -0.269317,-0.26931 -0.968359,-0.29811 -1.553426,-0.064 -0.64655,0.25872 -0.4545,0.45077 0.489667,0.48966 0.854384,0.0352 1.333075,-0.15636 1.063759,-0.42568 z m 4.052417,-0.81048 c -0.269317,-0.26932 -0.968359,-0.29811 -1.553427,-0.064 -0.646549,0.25873 -0.454499,0.45078 0.489667,0.48967 0.854384,0.0352 1.333076,-0.15637 1.06376,-0.42568 z m 4.862902,-0.81048 c -0.269323,-0.26932 -0.968365,-0.29811 -1.553429,-0.064 -0.646547,0.25873 -0.454503,0.45078 0.48967,0.48967 0.854379,0.0352 1.333075,-0.15637 1.063759,-0.42569 z m -47.855843,-2.09375 c -0.258728,-0.64655 -0.450777,-0.4545 -0.489668,0.48967 -0.03519,0.85438 0.156365,1.33307 0.425682,1.06375 0.269317,-0.26931 0.298111,-0.96835 0.06399,-1.55342 z m 14.861907,0.95368 c 2.678265,-1.43336 4.03604,-3.31623 4.03604,-5.59689 0,-2.94837 -2.150204,-4.78715 -6.99657,-5.98323 -3.626604,-0.89504 -3.944955,-1.16982 -3.944955,-3.40505 0,-2.13595 0.311106,-2.46165 2.559817,-2.67989 1.831044,-0.1777 3.073964,0.28378 4.365758,1.62097 l 1.805941,1.8694 -0.504896,-2.02621 c -0.277691,-1.11441 -0.509875,-2.22225 -0.515961,-2.46185 -0.0061,-0.2396 -1.533281,-0.49634 -3.393764,-0.57053 -4.087998,-0.163019 -7.841606,1.85701 -8.527298,4.58902 -0.668796,2.6647 1.312868,5.97665 4.032854,6.74011 1.212067,0.34021 3.20673,0.90089 4.432586,1.24595 1.791601,0.50431 2.22883,1.10053 2.22883,3.03931 0,2.14291 -0.302259,2.44089 -2.709884,2.67156 -2.907529,0.27856 -5.800191,-1.59775 -5.800191,-3.76226 0,-0.67385 -0.226139,-0.99905 -0.502531,-0.72266 -0.276392,0.2764 -0.274733,1.7168 0.0036,3.20091 0.480344,2.56045 0.696523,2.70666 4.229282,2.86041 2.047685,0.0891 4.38825,-0.19396 5.201255,-0.62907 z m 37.046353,0.32958 c -0.269324,-0.26931 -0.968366,-0.29811 -1.553429,-0.064 -0.646547,0.25872 -0.454503,0.45077 0.489669,0.48966 0.854379,0.0352 1.333075,-0.15636 1.06376,-0.42568 z m 4.052416,-0.81048 c -0.269323,-0.26932 -0.968365,-0.29811 -1.553429,-0.064 -0.646547,0.25873 -0.454503,0.45078 0.48967,0.48967 0.854379,0.0352 1.333075,-0.15637 1.063759,-0.42568 z m -27.53955,-1.93072 c 2.910338,-0.0122 3.555946,-1.2019 1.013104,-1.86687 -1.180305,-0.30865 -1.620967,-1.10551 -1.620967,-2.93122 0,-1.37903 -0.05312,-2.78086 -0.118038,-3.11519 -0.06492,-0.33432 1.236357,-0.82801 2.891728,-1.09708 5.139953,-0.83548 7.506625,-5.43956 4.471035,-8.697886 -1.853539,-1.989541 -3.721065,-2.133203 -11.077428,-0.852148 -4.640397,0.80809 -5.021275,1.014288 -3.648991,1.975474 2.165105,1.5165 4.130708,14.33918 2.502445,16.32479 -0.982276,1.19785 -0.883555,1.28369 0.926833,0.80593 1.114414,-0.2941 3.21154,-0.53971 4.660279,-0.5458 z m -1.819699,-12.37093 c -0.29158,-1.44874 -0.709854,-3.27233 -0.929497,-4.05242 -0.313627,-1.113889 0.0995,-1.418346 1.92462,-1.418346 2.885304,0 4.26913,1.313576 4.26913,4.052416 0,4.50848 -4.403528,5.69492 -5.264253,1.41835 z m 39.895534,12.68068 c -0.26933,-0.26931 -0.96837,-0.29811 -1.55343,-0.064 -0.64655,0.25872 -0.4545,0.45077 0.48967,0.48966 0.85438,0.0352 1.33307,-0.15636 1.06376,-0.42568 z m 4.05242,-0.81048 c -0.26933,-0.26932 -0.96837,-0.29811 -1.55343,-0.064 -0.64655,0.25873 -0.45451,0.45078 0.48967,0.48967 0.85437,0.0352 1.33307,-0.15637 1.06376,-0.42568 z m -71.359865,-2.09375 c -0.258727,-0.64655 -0.450777,-0.4545 -0.489667,0.48967 -0.03519,0.85438 0.156365,1.33307 0.425682,1.06376 0.269316,-0.26932 0.29811,-0.96836 0.06399,-1.55343 z m 75.834405,1.23617 c -0.55721,-0.22484 -1.46901,-0.22484 -2.02621,0 -0.55721,0.22483 -0.10131,0.40879 1.0131,0.40879 1.11442,0 1.57031,-0.18396 1.01311,-0.40879 z m -32.184939,-2.19285 c -0.916069,-0.68203 -1.064559,-1.5417 -0.578471,-3.34901 0.548719,-2.04018 1.110537,-2.47051 3.491277,-2.67415 2.363791,-0.2022 2.992256,0.0973 3.765603,1.79464 0.580646,1.27437 0.636205,2.21786 0.148359,2.51936 -1.675286,1.03539 -0.662344,1.86045 1.516803,1.23548 1.263195,-0.36228 4.545652,-0.91971 7.29435,-1.23873 2.748697,-0.31902 4.997628,-0.93046 4.997628,-1.35877 0,-0.42831 -0.32339,-0.57887 -0.71865,-0.33459 -1.27798,0.78983 -2.354048,-1.45899 -2.931558,-6.1265 -0.688513,-5.564593 0.475219,-6.750858 2.474378,-2.52229 2.3633,4.99883 5.44018,9.22305 6.17947,8.48376 0.38087,-0.38087 1.22674,-3.73113 1.8797,-7.44502 1.67749,-9.541064 2.02577,-9.560372 3.40526,-0.18878 0.41388,2.81168 0.45656,5.29505 0.0948,5.51859 -1.85569,1.14688 -0.20235,1.55767 3.34478,0.83105 3.04976,-0.62474 3.7434,-1.02538 2.91412,-1.68318 -1.61483,-1.28093 -3.76708,-15.133444 -2.5779,-16.592221 0.78299,-0.960529 0.41953,-1.044734 -2.30627,-0.534283 -1.77967,0.333273 -3.46904,0.750128 -3.75417,0.926345 -0.28512,0.176218 -0.77042,2.673558 -1.07842,5.549645 -0.83621,7.808484 -2.10899,8.157314 -5.49413,1.505774 -2.70932,-5.32359 -2.88445,-5.487973 -5.55901,-5.217722 -3.156063,0.318906 -6.18188,1.680004 -3.829282,1.72252 1.644924,0.02973 2.11357,1.36259 2.715913,7.724242 0.253244,2.67459 0.533079,5.54186 0.621851,6.3717 0.225963,2.11228 -2.578698,3.78124 -3.593504,2.13837 -0.413023,-0.66865 -2.665453,-4.49818 -5.005391,-8.51007 -2.339939,-4.011897 -4.789924,-7.294354 -5.4444,-7.294354 -0.878412,0 -1.614946,2.370526 -2.813187,9.054214 -0.892774,4.97982 -1.896764,9.32604 -2.231089,9.65826 -1.210819,1.20321 -0.558624,1.66688 1.847827,1.31369 2.043892,-0.29998 2.249022,-0.51428 1.223263,-1.27797 z m 0.373464,-9.3798 c 0,-3.31947 1.320511,-3.79029 2.769851,-0.98757 1.323406,2.55919 1.01415,3.37118 -1.283965,3.37118 -1.104036,0 -1.485886,-0.61255 -1.485886,-2.38361 z m 35.863885,10.76216 c -0.5572,-0.22483 -1.469,-0.22483 -2.02621,0 -0.5572,0.22484 -0.10131,0.4088 1.01311,0.4088 1.11441,0 1.57031,-0.18396 1.0131,-0.4088 z m 8.43898,-3.71827 c -0.22483,-0.5572 -0.4088,-0.10131 -0.4088,1.01311 0,1.11441 0.18397,1.57031 0.4088,1.0131 0.22484,-0.55721 0.22484,-1.469 0,-2.02621 z m -0.81048,-4.05241 c -0.22484,-0.55721 -0.4088,-0.10131 -0.4088,1.0131 0,1.11442 0.18396,1.57031 0.4088,1.0131 0.22483,-0.5572 0.22483,-1.469 0,-2.0262 z m -89.136281,-3.19128 c -0.258728,-0.64655 -0.450777,-0.4545 -0.489668,0.48967 -0.03519,0.85438 0.156365,1.33307 0.425682,1.06376 0.269317,-0.26932 0.298111,-0.96836 0.06399,-1.55343 z m 88.342681,-0.81048 c -0.25873,-0.64655 -0.45078,-0.4545 -0.48966,0.48966 -0.0352,0.85439 0.15635,1.33308 0.42568,1.06376 0.26931,-0.26932 0.2981,-0.96836 0.0639,-1.55342 z M 35.442435,99.721442 c -0.258727,-0.646549 -0.450777,-0.4545 -0.489667,0.489668 -0.03519,0.85438 0.156365,1.33307 0.425682,1.06376 0.269316,-0.26932 0.29811,-0.96836 0.06399,-1.553428 z m 6.521192,-4.390118 c -0.269317,-0.269317 -0.968359,-0.298111 -1.553427,-0.06399 -0.646549,0.258727 -0.454499,0.450777 0.489668,0.489667 0.854384,0.03519 1.333075,-0.156365 1.063759,-0.425682 z m 4.8629,-0.810484 C 46.55721,94.251524 45.858168,94.22273 45.2731,94.45685 c -0.646549,0.258727 -0.454499,0.450777 0.489668,0.489667 0.854384,0.03519 1.333075,-0.156365 1.063759,-0.425682 z m 76.131223,-2.144403 c -0.22484,-0.557207 -0.4088,-0.101311 -0.4088,1.013104 0,1.114415 0.18396,1.570311 0.4088,1.013104 0.22483,-0.557207 0.22483,-1.469001 0,-2.026208 z m -72.078806,1.33392 c -0.269318,-0.269316 -0.968359,-0.29811 -1.553427,-0.06399 -0.646549,0.258728 -0.4545,0.450777 0.489667,0.489668 0.854384,0.03519 1.333076,-0.156365 1.06376,-0.425682 z m 4.052416,-0.810483 c -0.269317,-0.269317 -0.968359,-0.298111 -1.553426,-0.06399 -0.64655,0.258727 -0.4545,0.450777 0.489667,0.489667 0.854384,0.03519 1.333076,-0.156365 1.063759,-0.425682 z m 4.474543,-0.857584 c -0.557207,-0.224838 -1.469001,-0.224838 -2.026208,0 -0.557207,0.224839 -0.10131,0.408796 1.013104,0.408796 1.114415,0 1.570312,-0.183957 1.013104,-0.408796 z m 10.536283,-1.620967 c -0.557207,-0.224837 -1.469001,-0.224837 -2.026208,0 -0.557207,0.224839 -0.10131,0.408797 1.013104,0.408797 1.114415,0 1.570312,-0.183958 1.013104,-0.408797 z m 6.686488,-1.084199 c 2.184021,-0.555739 2.22526,-0.620236 0.405241,-0.633802 -1.114414,-0.0083 -2.938002,0.276905 -4.052416,0.633802 -1.587732,0.508481 -1.675427,0.645637 -0.405242,0.633802 0.891532,-0.0083 2.715119,-0.293517 4.052417,-0.633802 z m 45.535476,-0.962448 c -0.25873,-0.64655 -0.45078,-0.4545 -0.48966,0.489667 -0.0352,0.854384 0.15635,1.333075 0.42568,1.063759 0.26931,-0.269317 0.2981,-0.968359 0.0639,-1.553426 z M 82.487793,88.036974 c -0.269317,-0.269316 -0.968359,-0.29811 -1.553427,-0.06399 -0.646549,0.258728 -0.454499,0.450777 0.489668,0.489667 0.854384,0.03519 1.333075,-0.156364 1.063759,-0.425682 z m 10.536286,-1.620967 c -0.269324,-0.269316 -0.968366,-0.29811 -1.553429,-0.06399 -0.646547,0.258727 -0.454503,0.450777 0.489669,0.489667 0.854379,0.03519 1.333075,-0.156365 1.06376,-0.425682 z m 4.47454,-0.857584 c -0.557207,-0.224837 -1.469001,-0.224837 -2.026208,0 -0.557207,0.224839 -0.10131,0.408797 1.013104,0.408797 1.114415,0 1.570312,-0.183958 1.013104,-0.408797 z M 121.33678,83.46112 c -0.22483,-0.557207 -0.4088,-0.10131 -0.4088,1.013105 0,1.114414 0.18397,1.570311 0.4088,1.013104 0.22484,-0.557208 0.22484,-1.469001 0,-2.026209 z m -19.39738,1.333921 c -0.26933,-0.269317 -0.96837,-0.298111 -1.55343,-0.06399 -0.646551,0.258727 -0.454507,0.450777 0.48967,0.489667 0.85437,0.03519 1.33307,-0.156365 1.06376,-0.425682 z m 4.05241,-0.810484 c -0.26931,-0.269316 -0.96836,-0.29811 -1.55343,-0.06399 -0.64654,0.258727 -0.4545,0.450777 0.48967,0.489667 0.85438,0.03519 1.33308,-0.156365 1.06376,-0.425682 z m 4.05242,-0.810483 c -0.26933,-0.269316 -0.96837,-0.29811 -1.55343,-0.06399 -0.64655,0.258728 -0.4545,0.450777 0.48967,0.489668 0.85438,0.03519 1.33307,-0.156365 1.06376,-0.425682 z m 10.53628,-1.620967 c -0.26932,-0.269316 -0.96836,-0.29811 -1.55343,-0.06399 -0.64654,0.258727 -0.4545,0.450777 0.48967,0.489667 0.85438,0.03519 1.33308,-0.156365 1.06376,-0.425682 z"
         id="path975"
         inkscape:connector-curvature="0" />
      <path
         style="fill:#b3b4b4;stroke-width:0.81048334;"
         d="m 37.320233,259.94213 c -3.052936,-0.88298 10.218398,-1.05899 81.453577,-1.08021 74.52013,-0.0222 84.64729,0.11722 81.45357,1.12131 -5.16399,1.62353 -157.284319,1.58515 -162.907147,-0.0411 z m -4.204314,-5.38467 -0.253344,-3.52891 -10.536284,-0.4424 -10.536283,-0.44238 10.738904,-0.16548 10.738904,-0.16547 v -49.57456 c 0,-27.26601 0.200224,-49.37434 0.444943,-49.12962 0.555806,0.5558 0.616545,106.01769 0.06138,106.57286 -0.222681,0.22268 -0.51888,-1.18314 -0.65822,-3.12404 z m 170.097601,-0.16717 c -0.36256,-1.71718 -0.45334,-3.32801 -0.20171,-3.57964 0.91714,-0.91714 1.36964,0.53198 1.11823,3.58114 l -0.25729,3.12062 z m -40.37176,-31.93128 c -1.00813,-1.28548 -0.97947,-1.31414 0.30601,-0.30601 0.78009,0.6118 1.41834,1.25005 1.41834,1.41835 0,0.66706 -0.66556,0.23772 -1.72435,-1.11234 z m -81.755428,-1.33658 c 0,-0.2009 3.928826,-3.08177 8.730729,-6.40192 9.830928,-6.79736 11.055899,-7.98426 10.375729,-10.05324 -0.263483,-0.80149 -7.496787,-6.51268 -16.074002,-12.69155 -31.533804,-22.71637 -46.578499,-34.25374 -43.788132,-33.57994 0.541317,0.13072 12.759353,8.83911 27.151191,19.35199 14.391837,10.51287 28.902358,20.90732 32.245601,23.09877 3.343242,2.19145 6.260982,4.1748 6.483872,4.40743 0.22288,0.23264 2.78829,1.95655 5.70092,3.83092 9.38963,6.04255 12.47719,6.31141 19.2597,1.67707 7.68889,-5.25364 23.56783,-17.66976 44.58868,-34.86495 11.84818,-9.6919 21.7311,-17.4327 21.96201,-17.20178 0.54569,0.54569 -2.39277,3.21778 -13.32198,12.1144 -4.91569,4.00148 -11.84532,9.71665 -15.39918,12.70038 -3.55386,2.98373 -10.47346,8.64688 -15.37688,12.58476 -11.74813,9.43481 -11.77561,9.76739 -1.45737,17.6369 4.10186,3.12842 7.9314,6.20964 8.51007,6.84716 0.57867,0.63754 -0.77146,-0.1954 -3.00028,-1.85094 -6.30059,-4.68001 -15.68238,-11.06424 -17.00508,-11.57181 -0.69469,-0.26658 -2.21314,0.55878 -3.62441,1.97004 -3.33335,3.33335 -10.26818,6.6464 -13.91215,6.6464 -3.53705,0 -16.11357,-6.09907 -16.11357,-7.81439 0,-2.71869 -5.70101,-0.0671 -18.843739,8.76423 -3.900451,2.62095 -7.091729,4.60098 -7.091729,4.40007 z M 203.13821,159.02084 c -0.30879,-2.32772 -0.19055,-4.66984 0.27618,-5.47076 0.60684,-1.04136 0.82243,0.002 0.84076,4.07026 0.0135,3.00892 -0.11073,5.47077 -0.27618,5.47077 -0.16545,0 -0.5438,-1.83162 -0.84076,-4.07027 z M 96.282894,148.70511 c 43.023366,-0.15452 59.367906,-0.46223 59.367906,-1.11768 0,-0.66128 0.29021,-0.66362 1.07933,-0.009 0.71003,0.58927 8.26673,0.97476 22.08567,1.12664 11.55349,0.12698 -15.64777,0.22685 -60.44724,0.22192 -53.754276,-0.006 -61.264781,-0.0815 -22.085666,-0.22218 z M 38.527741,128.72915 c -0.211523,-0.9375 -0.763734,-4.19539 -1.227135,-7.23974 -0.463401,-3.04436 -1.753793,-10.11487 -2.867536,-15.71226 -1.113743,-5.59739 -1.922727,-10.271296 -1.797741,-10.386461 0.373439,-0.344098 12.642845,-2.701453 20.89457,-4.014532 4.234776,-0.67387 8.611385,-1.408171 9.7258,-1.631779 1.114415,-0.223609 7.496971,-1.325007 14.183458,-2.447553 6.686488,-1.122545 12.660617,-2.223622 13.275838,-2.446839 0.61523,-0.223216 4.809481,-0.958619 9.320555,-1.63423 10.15075,-1.520244 12.22298,-1.878416 16.30681,-2.818511 5.64634,-1.29979 5.92849,-1.166654 6.49309,3.063875 0.28258,2.117388 1.38506,8.408765 2.44994,13.980838 1.0649,5.572072 2.04137,11.742392 2.16995,13.711822 l 0.23378,3.58078 -5.67338,1.08862 c -3.12036,0.59875 -8.04405,1.44886 -10.94153,1.88916 -5.06614,0.76984 -18.180797,3.12501 -19.856836,3.56596 -0.445766,0.11727 -2.634071,0.48623 -4.8629,0.8199 -2.228829,0.33367 -8.793744,1.47168 -14.5887,2.52891 -5.794956,1.05723 -12.060594,2.13412 -13.923642,2.3931 -1.863046,0.25897 -6.884408,1.13295 -11.15858,1.94217 l -7.771223,1.47132 z m 9.734017,-1.31432 c 4.475896,-0.69778 28.03523,-4.76447 40.118924,-6.92513 1.114415,-0.19926 7.132253,-1.26252 13.372978,-2.36279 22.07876,-3.8926 23.9577,-4.25357 24.38977,-4.68564 0.24006,-0.24006 -0.52757,-6.03525 -1.70586,-12.87818 -1.17829,-6.842928 -2.34562,-13.818273 -2.59407,-15.500763 -0.24846,-1.682489 -0.75922,-3.249106 -1.13502,-3.481369 -0.72294,-0.446794 -23.454011,3.178549 -28.275381,4.509594 l -2.836692,0.78313 3.241933,-0.332248 c 1.783064,-0.182736 8.5127,-1.245761 14.95475,-2.362278 6.44206,-1.116517 11.95306,-1.881558 12.24668,-1.700092 0.29362,0.181467 0.76402,1.889946 1.04534,3.796621 0.28133,1.906674 1.40329,8.553799 2.49325,14.771385 1.08996,6.21759 1.801,11.59717 1.58008,11.95463 -0.22092,0.35746 -1.24321,0.64992 -2.27175,0.64992 -1.02856,0 -6.56897,0.88049 -12.31205,1.95665 -5.74307,1.07615 -12.447896,2.21849 -14.899608,2.53852 -5.573475,0.72752 -6.018755,0.80638 -15.399183,2.7272 -4.234776,0.86715 -11.164408,2.15208 -15.399183,2.85541 -4.234776,0.70332 -11.255246,1.88478 -15.601046,2.62545 -4.345799,0.74067 -8.091138,1.15698 -8.322975,0.92515 -0.476985,-0.47699 -3.182981,-14.36404 -3.997985,-20.51748 -0.295201,-2.22883 -0.82976,-5.36555 -1.18791,-6.97049 l -0.651179,-2.918068 8.19406,-1.38095 c 4.506733,-0.759522 10.747082,-1.893364 13.867443,-2.51965 3.120361,-0.626285 7.132253,-1.329512 8.915317,-1.562726 1.783063,-0.233215 7.800902,-1.308605 13.372974,-2.389756 11.064597,-2.146869 11.064597,-2.799635 0,-0.910977 -27.070039,4.620687 -44.68728,7.813242 -45.251415,8.200356 -0.148275,0.101747 0.497151,4.318721 1.43428,9.371041 0.937129,5.05233 2.290893,12.38695 3.008363,16.29916 1.072217,5.84658 1.538395,7.0424 2.618136,6.71597 0.722505,-0.21842 3.866668,-0.79515 6.987029,-1.2816 z m 6.188841,-8.55206 c 2.945842,-1.52335 3.982563,-4.04299 2.918928,-7.09414 -0.84746,-2.43102 -2.136478,-3.20289 -7.689424,-4.60444 -2.830922,-0.71452 -3.444554,-1.20934 -3.444554,-2.77765 0,-3.52399 4.740963,-3.96071 7.201074,-0.66334 l 1.662891,2.22883 0.02568,-2.93652 0.02568,-2.93653 -3.740986,-0.0751 c -4.080079,-0.08189 -7.930209,1.48627 -8.72329,3.553 -1.743641,4.54386 0.489985,7.56537 6.59589,8.92252 3.515009,0.78128 3.842178,1.05639 3.842178,3.23083 0,1.65844 -0.448076,2.46313 -1.482451,2.66234 -2.775342,0.53448 -5.455622,-0.69351 -6.37337,-2.92 -0.752798,-1.82632 -0.969549,-1.95094 -1.258832,-0.72375 -0.192199,0.81535 -0.147899,2.28551 0.09844,3.26702 0.37238,1.48368 1.079277,1.81205 4.192591,1.94755 2.095408,0.0912 4.803874,-0.38475 6.149558,-1.08063 z m 12.249654,-1.67894 c 2.877589,-0.47563 4.318357,-1.91124 1.918115,-1.91124 -1.091354,0 -2.08731,-2.33082 -2.109669,-4.93723 -0.0069,-0.80511 1.19659,-1.65188 3.201543,-2.25258 5.212663,-1.56175 7.079732,-5.51876 4.251793,-9.011115 -1.706493,-2.107429 -4.937928,-2.311357 -11.908132,-0.751494 -3.926755,0.878769 -4.442361,1.191113 -3.320462,2.011469 1.851125,1.35357 4.174755,14.62225 2.841912,16.22822 -1.095914,1.3205 0.05971,1.4612 5.1249,0.62397 z M 65.383218,104.635 c -0.921118,-4.60559 -0.662476,-5.572076 1.49114,-5.572076 3.463268,0 5.105805,5.661466 2.108006,7.265836 -2.450183,1.3113 -3.055066,1.02664 -3.599146,-1.69376 z m 16.473073,9.83817 c 0.914045,-0.009 0.959072,-0.22719 0.202621,-0.98364 -0.534919,-0.53492 -0.97258,-1.96481 -0.97258,-3.17754 0,-1.81824 0.451587,-2.30414 2.574833,-2.77048 3.060571,-0.67222 5.075157,1.33182 4.329804,4.30714 -0.395637,1.57928 -0.197077,1.78987 1.382198,1.46594 1.014312,-0.20805 4.30605,-0.8057 7.314969,-1.32812 3.008919,-0.52241 5.470764,-1.27326 5.470764,-1.66855 0,-0.39529 -0.5225,-0.71871 -1.16111,-0.71871 -1.321013,0 -1.772849,-1.23048 -2.455292,-6.68649 -0.26485,-2.11739 -0.174384,-3.849796 0.201024,-3.849796 0.375407,0 2.118048,2.552146 3.872558,5.671436 3.30951,5.88392 4.89142,6.97225 5.59856,3.85174 0.47247,-2.08486 2.02132,-11.950842 2.06761,-13.170351 0.0169,-0.445765 0.34817,-0.263407 0.7361,0.405242 1.19602,2.061511 1.99387,12.157249 0.96077,12.157249 -0.4977,0 -0.90491,0.3893 -0.90491,0.8651 0,0.47581 0.63826,0.69001 1.41835,0.47601 0.78009,-0.214 2.78604,-0.61982 4.45766,-0.90182 2.85254,-0.48123 4.34148,-2.06026 1.94272,-2.06026 -0.75345,0 -1.48437,-2.34592 -2.33584,-7.496967 -1.06041,-6.415103 -1.07514,-7.591878 -0.10209,-8.154645 2.21822,-1.282905 0.27799,-1.950798 -3.29314,-1.133608 l -3.62367,0.829215 -0.55626,4.53345 c -0.30595,2.493398 -0.89255,5.431495 -1.30356,6.529105 -0.70473,1.88198 -0.92126,1.67424 -3.80149,-3.647178 -1.97794,-3.654357 -3.53278,-5.619025 -4.412306,-5.575286 -5.34303,0.265716 -6.221002,0.42776 -6.221002,1.148185 0,0.445766 0.524731,0.810483 1.166067,0.810483 0.77979,0 1.333577,1.275276 1.671767,3.849796 0.278134,2.11739 0.831191,5.49102 1.229009,7.49697 0.590875,2.97939 0.485512,3.82792 -0.575443,4.63432 -0.714311,0.54293 -1.583968,0.81087 -1.932557,0.59543 -0.348589,-0.21544 -2.748592,-4.03329 -5.333345,-8.48411 -3.157773,-5.437538 -5.17077,-8.092406 -6.135907,-8.092406 -0.789996,0 -1.436358,0.228362 -1.436358,0.507472 0,2.804611 -2.857653,16.520524 -3.729912,17.902504 -1.561238,2.47358 -1.427664,2.93062 0.6906,2.36294 1.002973,-0.26878 2.352428,-0.49368 2.998788,-0.49977 z m 0.05293,-9.85277 c 0.0226,-3.47824 1.160039,-4.10414 2.705107,-1.48855 0.784599,1.32822 1.07104,2.41494 0.636524,2.41494 -0.434508,0 -1.366921,0.22138 -2.072028,0.49196 -0.947172,0.36346 -1.27877,-0.007 -1.269601,-1.41835 z"
         id="path973"
         inkscape:connector-curvature="0" />
      <path
         style="fill:#d25659;stroke-width:0.81048334;"
         d="m 77.703627,258.93089 c 22.879513,-0.11964 60.080693,-0.11961 82.669293,7e-5 22.5886,0.11969 3.869,0.21758 -41.59911,0.21754 -45.468118,-4e-5 -63.949699,-0.098 -41.070183,-0.21761 z m 26.076243,-53.69465 c 0,-0.44577 0.34319,-0.81048 0.76264,-0.81048 0.41946,0 0.98806,0.36471 1.26356,0.81048 0.2755,0.44577 -0.0677,0.81048 -0.76265,0.81048 -0.69495,0 -1.26355,-0.36471 -1.26355,-0.81048 z m 35.25602,0 c 0.2755,-0.44577 0.8441,-0.81048 1.26356,-0.81048 0.41946,0 0.76265,0.36471 0.76265,0.81048 0,0.44577 -0.5686,0.81048 -1.26356,0.81048 -0.69496,0 -1.03815,-0.36471 -0.76265,-0.81048 z M 38.527741,128.72915 c -0.211523,-0.9375 -0.763734,-4.19539 -1.227135,-7.23974 -0.463401,-3.04436 -1.753793,-10.11487 -2.867536,-15.71226 -1.113743,-5.59739 -1.922727,-10.271296 -1.797741,-10.386461 0.373439,-0.344098 12.642845,-2.701453 20.89457,-4.014532 4.234776,-0.67387 8.611385,-1.408171 9.7258,-1.631779 1.114415,-0.223609 7.496971,-1.325007 14.183458,-2.447553 6.686488,-1.122545 12.660617,-2.223622 13.275838,-2.446839 0.61523,-0.223216 4.809481,-0.958619 9.320555,-1.63423 10.15075,-1.520244 12.22298,-1.878416 16.30681,-2.818511 5.64634,-1.29979 5.92849,-1.166654 6.49309,3.063875 0.28258,2.117388 1.38506,8.408765 2.44994,13.980838 1.0649,5.572072 2.04137,11.742392 2.16995,13.711822 l 0.23378,3.58078 -5.67338,1.08862 c -3.12036,0.59875 -8.04405,1.44886 -10.94153,1.88916 -5.06614,0.76984 -18.180797,3.12501 -19.856836,3.56596 -0.445766,0.11727 -2.634071,0.48623 -4.8629,0.8199 -2.228829,0.33367 -8.793744,1.47168 -14.5887,2.52891 -5.794956,1.05723 -12.060594,2.13412 -13.923642,2.3931 -1.863046,0.25897 -6.884408,1.13295 -11.15858,1.94217 l -7.771223,1.47132 z m 9.734017,-1.31432 c 4.475896,-0.69778 28.03523,-4.76447 40.118924,-6.92513 1.114415,-0.19926 7.132253,-1.26252 13.372978,-2.36279 22.07876,-3.8926 23.9577,-4.25357 24.38977,-4.68564 0.24006,-0.24006 -0.52757,-6.03525 -1.70586,-12.87818 -1.17829,-6.842928 -2.34562,-13.818273 -2.59407,-15.500763 -0.24846,-1.682489 -0.75922,-3.249106 -1.13502,-3.481369 -0.72294,-0.446794 -23.454011,3.178549 -28.275381,4.509594 l -2.836692,0.78313 3.241933,-0.332248 c 1.783064,-0.182736 8.5127,-1.245761 14.95475,-2.362278 6.44206,-1.116517 11.95306,-1.881558 12.24668,-1.700092 0.29362,0.181467 0.76402,1.889946 1.04534,3.796621 0.28133,1.906674 1.40329,8.553799 2.49325,14.771385 1.08996,6.21759 1.801,11.59717 1.58008,11.95463 -0.22092,0.35746 -1.24321,0.64992 -2.27175,0.64992 -1.02856,0 -6.56897,0.88049 -12.31205,1.95665 -5.74307,1.07615 -12.447896,2.21849 -14.899608,2.53852 -5.573475,0.72752 -6.018755,0.80638 -15.399183,2.7272 -4.234776,0.86715 -11.164408,2.15208 -15.399183,2.85541 -4.234776,0.70332 -11.255246,1.88478 -15.601046,2.62545 -4.345799,0.74067 -8.091138,1.15698 -8.322975,0.92515 -0.476985,-0.47699 -3.182981,-14.36404 -3.997985,-20.51748 -0.295201,-2.22883 -0.82976,-5.36555 -1.18791,-6.97049 l -0.651179,-2.918068 8.19406,-1.38095 c 4.506733,-0.759522 10.747082,-1.893364 13.867443,-2.51965 3.120361,-0.626285 7.132253,-1.329512 8.915317,-1.562726 1.783063,-0.233215 7.800902,-1.308605 13.372974,-2.389756 11.064597,-2.146869 11.064597,-2.799635 0,-0.910977 -27.070039,4.620687 -44.68728,7.813242 -45.251415,8.200356 -0.148275,0.101747 0.497151,4.318721 1.43428,9.371041 0.937129,5.05233 2.290893,12.38695 3.008363,16.29916 1.072217,5.84658 1.538395,7.0424 2.618136,6.71597 0.722505,-0.21842 3.866668,-0.79515 6.987029,-1.2816 z m 6.188841,-8.55206 c 2.945842,-1.52335 3.982563,-4.04299 2.918928,-7.09414 -0.84746,-2.43102 -2.136478,-3.20289 -7.689424,-4.60444 -2.830922,-0.71452 -3.444554,-1.20934 -3.444554,-2.77765 0,-3.52399 4.740963,-3.96071 7.201074,-0.66334 l 1.662891,2.22883 0.02568,-2.93652 0.02568,-2.93653 -3.740986,-0.0751 c -4.080079,-0.08189 -7.930209,1.48627 -8.72329,3.553 -1.743641,4.54386 0.489985,7.56537 6.59589,8.92252 3.515009,0.78128 3.842178,1.05639 3.842178,3.23083 0,1.65844 -0.448076,2.46313 -1.482451,2.66234 -2.775342,0.53448 -5.455622,-0.69351 -6.37337,-2.92 -0.752798,-1.82632 -0.969549,-1.95094 -1.258832,-0.72375 -0.192199,0.81535 -0.147899,2.28551 0.09844,3.26702 0.37238,1.48368 1.079277,1.81205 4.192591,1.94755 2.095408,0.0912 4.803874,-0.38475 6.149558,-1.08063 z m 12.249654,-1.67894 c 2.877589,-0.47563 4.318357,-1.91124 1.918115,-1.91124 -1.091354,0 -2.08731,-2.33082 -2.109669,-4.93723 -0.0069,-0.80511 1.19659,-1.65188 3.201543,-2.25258 5.212663,-1.56175 7.079732,-5.51876 4.251793,-9.011115 -1.706493,-2.107429 -4.937928,-2.311357 -11.908132,-0.751494 -3.926755,0.878769 -4.442361,1.191113 -3.320462,2.011469 1.851125,1.35357 4.174755,14.62225 2.841912,16.22822 -1.095914,1.3205 0.05971,1.4612 5.1249,0.62397 z M 65.383218,104.635 c -0.921118,-4.60559 -0.662476,-5.572076 1.49114,-5.572076 3.463268,0 5.105805,5.661466 2.108006,7.265836 -2.450183,1.3113 -3.055066,1.02664 -3.599146,-1.69376 z m 16.473073,9.83817 c 0.914045,-0.009 0.959072,-0.22719 0.202621,-0.98364 -0.534919,-0.53492 -0.97258,-1.96481 -0.97258,-3.17754 0,-1.81824 0.451587,-2.30414 2.574833,-2.77048 3.060571,-0.67222 5.075157,1.33182 4.329804,4.30714 -0.395637,1.57928 -0.197077,1.78987 1.382198,1.46594 1.014312,-0.20805 4.30605,-0.8057 7.314969,-1.32812 3.008919,-0.52241 5.470764,-1.27326 5.470764,-1.66855 0,-0.39529 -0.5225,-0.71871 -1.16111,-0.71871 -1.321013,0 -1.772849,-1.23048 -2.455292,-6.68649 -0.26485,-2.11739 -0.174384,-3.849796 0.201024,-3.849796 0.375407,0 2.118048,2.552146 3.872558,5.671436 3.30951,5.88392 4.89142,6.97225 5.59856,3.85174 0.47247,-2.08486 2.02132,-11.950842 2.06761,-13.170351 0.0169,-0.445765 0.34817,-0.263407 0.7361,0.405242 1.19602,2.061511 1.99387,12.157249 0.96077,12.157249 -0.4977,0 -0.90491,0.3893 -0.90491,0.8651 0,0.47581 0.63826,0.69001 1.41835,0.47601 0.78009,-0.214 2.78604,-0.61982 4.45766,-0.90182 2.85254,-0.48123 4.34148,-2.06026 1.94272,-2.06026 -0.75345,0 -1.48437,-2.34592 -2.33584,-7.496967 -1.06041,-6.415103 -1.07514,-7.591878 -0.10209,-8.154645 2.21822,-1.282905 0.27799,-1.950798 -3.29314,-1.133608 l -3.62367,0.829215 -0.55626,4.53345 c -0.30595,2.493398 -0.89255,5.431495 -1.30356,6.529105 -0.70473,1.88198 -0.92126,1.67424 -3.80149,-3.647178 -1.97794,-3.654357 -3.53278,-5.619025 -4.412306,-5.575286 -5.34303,0.265716 -6.221002,0.42776 -6.221002,1.148185 0,0.445766 0.524731,0.810483 1.166067,0.810483 0.77979,0 1.333577,1.275276 1.671767,3.849796 0.278134,2.11739 0.831191,5.49102 1.229009,7.49697 0.590875,2.97939 0.485512,3.82792 -0.575443,4.63432 -0.714311,0.54293 -1.583968,0.81087 -1.932557,0.59543 -0.348589,-0.21544 -2.748592,-4.03329 -5.333345,-8.48411 -3.157773,-5.437538 -5.17077,-8.092406 -6.135907,-8.092406 -0.789996,0 -1.436358,0.228362 -1.436358,0.507472 0,2.804611 -2.857653,16.520524 -3.729912,17.902504 -1.561238,2.47358 -1.427664,2.93062 0.6906,2.36294 1.002973,-0.26878 2.352428,-0.49368 2.998788,-0.49977 z m 0.05293,-9.85277 c 0.0226,-3.47824 1.160039,-4.10414 2.705107,-1.48855 0.784599,1.32822 1.07104,2.41494 0.636524,2.41494 -0.434508,0 -1.366921,0.22138 -2.072028,0.49196 -0.947172,0.36346 -1.27877,-0.007 -1.269601,-1.41835 z"
         id="path971"
         inkscape:connector-curvature="0" />
      <path
         style="fill:#757576;stroke-width:0.81048334;"
         d="m 77.703627,258.93089 c 22.879513,-0.11964 60.080693,-0.11961 82.669293,7e-5 22.5886,0.11969 3.869,0.21758 -41.59911,0.21754 -45.468118,-4e-5 -63.949699,-0.098 -41.070183,-0.21761 z m 26.076243,-53.69465 c 0,-0.44577 0.34319,-0.81048 0.76264,-0.81048 0.41946,0 0.98806,0.36471 1.26356,0.81048 0.2755,0.44577 -0.0677,0.81048 -0.76265,0.81048 -0.69495,0 -1.26355,-0.36471 -1.26355,-0.81048 z m 35.25602,0 c 0.2755,-0.44577 0.8441,-0.81048 1.26356,-0.81048 0.41946,0 0.76265,0.36471 0.76265,0.81048 0,0.44577 -0.5686,0.81048 -1.26356,0.81048 -0.69496,0 -1.03815,-0.36471 -0.76265,-0.81048 z M 38.253195,126.48509 c -0.513129,-2.223 -0.889488,-5.01696 -0.836353,-6.20881 0.05314,-1.19185 0.556987,0.15543 1.119671,2.99395 0.562683,2.83852 1.461583,5.43196 1.997554,5.76321 0.725877,0.44862 0.678243,0.71595 -0.186708,1.04787 -0.84946,0.32596 -1.41167,-0.6395 -2.094164,-3.59622 z m 3.929938,2.56572 c 0,-0.44577 1.002973,-0.78485 2.228829,-0.75352 1.975021,0.0505 2.044241,0.13628 0.607862,0.75352 -2.213738,0.95127 -2.836691,0.95127 -2.836691,0 z m 5.876004,-1.36917 c 0.78009,-0.20386 2.056601,-0.20386 2.836691,0 0.780091,0.20386 0.141835,0.37065 -1.418345,0.37065 -1.560181,0 -2.198436,-0.16679 -1.418346,-0.37065 z m -8.619101,-7.68147 C 37.5468,110.20623 35.708642,97.162421 36.158327,96.712736 c 0.193283,-0.193283 0.351422,0.118739 0.351422,0.69338 0,0.730792 0.304484,0.799518 1.013105,0.228669 1.396717,-1.125164 9.199099,-2.747407 14.106063,-2.932881 1.406172,-0.05315 2.387621,-0.370176 2.180998,-0.7045 -0.206625,-0.334325 0.214445,-0.607863 0.935709,-0.607863 0.824732,0 1.091553,0.375964 0.718999,1.013104 -0.325816,0.557207 0.199736,0.318322 1.167892,-0.530857 0.980136,-0.859684 1.760284,-1.129086 1.760284,-0.607862 0,0.514855 -0.353271,0.936098 -0.785046,0.936098 -0.431776,0 -0.575114,0.547077 -0.318529,1.215725 0.722013,1.881537 1.914058,1.435651 1.914058,-0.715955 0,-2.168984 3.140712,-3.575975 4.213629,-1.887641 0.483419,0.760705 0.627253,0.753822 0.63686,-0.03047 0.01482,-1.209813 3.749959,-1.367785 4.47824,-0.189401 0.279993,0.453037 0.848593,0.613872 1.263557,0.35741 0.414965,-0.256462 0.754481,-0.05853 0.754481,0.439853 0,0.498382 0.348789,0.690585 0.775086,0.427118 0.426297,-0.263466 0.58228,-0.981476 0.346627,-1.595578 -0.458956,-1.19602 0.579126,-1.653631 5.767395,-2.542406 1.783063,-0.305447 3.971368,-0.711517 4.8629,-0.902377 3.57022,-0.764318 12.153295,-1.7395 12.475381,-1.417414 0.188761,0.188765 0.741487,0.02377 1.228263,-0.366652 0.486784,-0.390426 2.161567,-0.956466 3.721747,-1.25787 2.088012,-0.403374 2.515832,-0.324396 1.620972,0.299242 -0.66865,0.465987 -0.85101,0.841235 -0.40525,0.833884 0.44577,-0.0074 1.51845,-0.548843 2.38374,-1.203314 2.17632,-1.646087 3.15126,-1.487488 2.64957,0.431017 -0.23315,0.891532 -0.0933,1.620967 0.31071,1.620967 0.40404,0 0.73461,-0.647894 0.73461,-1.439764 0,-1.183697 0.55972,-1.386386 3.14708,-1.139641 1.73089,0.165067 3.35286,-0.03284 3.60437,-0.439792 0.25542,-0.413288 -0.6866,-0.580115 -2.13397,-0.377918 -1.42521,0.199098 -2.38226,0.136845 -2.1268,-0.138341 0.35681,-0.384367 10.41978,-2.111674 10.49325,-1.801165 1.85613,7.844276 3.29894,20.735799 2.32074,20.735799 -0.39378,0 -0.71597,0.35327 -0.71597,0.78505 0,0.43177 0.54707,0.57511 1.21572,0.31853 0.75317,-0.28902 1.21573,0.004 1.21573,0.76963 0,0.67988 0.24433,1.87289 0.54297,2.65112 0.36084,0.94032 0.23638,1.22548 -0.37102,0.85009 -0.53942,-0.33338 -0.44101,0.3468 0.24014,1.65971 0.89222,1.71976 0.93048,2.36282 0.1686,2.83369 -0.59034,0.36485 -1.20653,0.0523 -1.53664,-0.77956 -0.51416,-1.29563 -0.55491,-1.29364 -0.60805,0.0297 -0.0409,1.01789 -0.80067,1.45748 -2.69104,1.55698 -4.4939,0.23651 -5.04323,0.31241 -5.87698,0.81196 -0.44523,0.26678 -2.77092,0.74974 -5.16819,1.07326 -3.11897,0.42091 -4.20034,0.33201 -3.80197,-0.31258 0.3062,-0.49544 0.17049,-0.90079 -0.30159,-0.90079 -0.47207,0 -0.85831,0.50566 -0.85831,1.1237 0,1.14174 -6.97637,2.70638 -7.908961,1.77379 -0.256323,-0.25632 -0.04053,-0.46604 0.479523,-0.46604 0.520063,0 0.945566,-0.3084 0.945566,-0.68532 0,-0.37693 -1.002973,-0.63117 -2.228829,-0.56497 -2.562756,0.13838 -4.615346,-1.24828 -3.17942,-2.14791 0.492919,-0.30882 1.392151,-0.14991 1.998287,0.35313 0.829019,0.68802 1.265967,0.64941 1.763652,-0.15586 0.506009,-0.81873 0.879391,-0.66352 1.587713,0.65998 0.642964,1.2014 1.702071,1.73046 3.464129,1.73046 1.39591,0 2.26912,-0.26888 1.94049,-0.59752 -0.32864,-0.32864 -1.02769,-0.60218 -1.55343,-0.60786 -0.52574,-0.006 -1.01593,-0.33428 -1.089297,-0.73021 -0.07335,-0.39593 -0.601419,-1.00912 -1.173451,-1.36266 -1.098982,-0.67921 0.367076,-1.1696 5.651558,-1.89045 2.8775,-0.39251 6.49405,-3.35562 4.78923,-3.9239 -0.72531,-0.24177 -0.72526,-0.45486 1.6e-4,-0.9032 0.59835,-0.3698 1.14053,0.1747 1.46628,1.47258 0.32566,1.29753 1.08402,2.05936 2.04998,2.05936 2.00765,0 1.93487,0.62072 -0.29049,2.47719 -1.00297,0.83671 -1.36769,1.53343 -0.81048,1.54826 0.5572,0.0148 1.0131,-0.31318 1.0131,-0.7289 0,-0.41573 0.71083,-0.98148 1.57961,-1.25722 0.95573,-0.30333 1.40164,-0.96512 1.12901,-1.67558 -0.34213,-0.89158 0.25312,-1.17424 2.47281,-1.17424 1.60788,0 2.9234,-0.32006 2.9234,-0.71124 0,-0.97497 -2.40841,-2.90393 -2.52465,-2.02207 -0.0513,0.38891 -0.37777,-0.75176 -0.72556,-2.53483 -0.4141,-2.12301 -0.31201,-3.645284 0.29582,-4.41061 0.68276,-0.859663 0.68467,-1.022803 0.007,-0.616978 -1.32344,0.792811 -2.05327,-2.738916 -0.86871,-4.203747 0.66107,-0.817474 0.67764,-1.030171 0.051,-0.654692 -0.51049,0.305891 -1.1336,0.02083 -1.38468,-0.63347 -0.25108,-0.654299 0.0173,-1.472819 0.59631,-1.818932 0.89872,-0.537223 2.41465,-4.276473 1.73368,-4.276473 -0.12997,0 -1.4584,0.51385 -2.95207,1.141888 -1.98953,0.836536 -3.14189,0.913823 -4.30934,0.28902 -1.14693,-0.613816 -1.68019,-0.593121 -1.9025,0.07383 -0.1699,0.50969 -1.00795,0.926707 -1.86233,0.926707 -0.85439,0 -1.55343,0.314142 -1.55343,0.698092 0,0.383952 0.9118,0.523792 2.02621,0.310758 2.21413,-0.423258 2.78825,1.146849 1.05363,2.88147 -1.37812,1.378111 -2.01755,1.212548 -2.50419,-0.648386 -0.23446,-0.896557 -1.09166,-1.609448 -1.91812,-1.595191 -1.3998,0.02414 -1.39204,0.10299 0.1228,1.247727 1.38817,1.049014 1.44552,1.331466 0.40524,1.995768 -0.8839,0.564438 -1.61789,0.2846 -2.71267,-1.034216 -1.48338,-1.786932 -1.47481,-1.818695 0.73397,-2.72153 l 2.23485,-0.913498 -2.50835,-0.368147 c -1.3796,-0.202483 -2.487303,-0.161026 -2.461578,0.09212 0.211328,2.079178 -0.327135,2.640664 -2.190728,2.284416 -1.125048,-0.215068 -2.240727,-0.07523 -2.479277,0.310758 -0.238557,0.385984 -1.415185,0.713389 -2.614732,0.727566 -2.028916,0.02398 -2.078031,0.103825 -0.704367,1.145072 1.428517,1.082827 1.428517,1.131739 0,1.501173 -1.120177,0.289695 -0.987509,0.427742 0.549581,0.571873 1.114414,0.104498 2.278463,0.1539 2.586771,0.109783 0.609872,-0.08727 1.377821,4.663769 1.680099,10.394239 0.261689,4.96095 -1.919451,5.508 -4.085549,1.0247 -1.516982,-3.13979 -1.515952,-3.16504 0.159049,-3.93049 0.927209,-0.42373 1.57541,-1.27071 1.440432,-1.8822 -0.13497,-0.61148 0.177504,-1.37316 0.694397,-1.692613 1.398643,-0.864412 -0.163896,-1.411504 -2.398803,-0.83989 -1.848389,0.472757 -1.876877,0.571629 -0.547644,1.900873 1.253259,1.25325 1.266461,1.45424 0.124328,1.89252 -1.464,0.56179 -4.446927,-2.56281 -4.489016,-4.702222 -0.01483,-0.753782 -0.387629,-1.593415 -0.828435,-1.865851 -0.915781,-0.565981 1.098497,-4.193175 3.37871,-6.084193 1.38369,-1.14752 1.352519,-1.215725 -0.555651,-1.215725 -1.245186,0 -2.031484,0.466904 -2.047362,1.215725 -0.0419,1.974763 -2.048237,4.052416 -3.91337,4.052416 -1.001225,0 -1.73424,0.513854 -1.73424,1.215725 0,1.259266 -1.64386,1.334614 -2.53276,0.116092 -0.278604,-0.381916 -0.771197,-0.266188 -1.094652,0.257172 -0.360107,0.582667 0.07192,1.124165 1.114415,1.396782 2.173188,0.568302 2.418754,4.302319 0.284168,4.320999 -0.873894,0.008 -1.076509,0.24098 -0.52783,0.60786 1.020795,0.68256 1.193491,3.43214 0.215566,3.43214 -0.357482,0 -0.43972,0.54789 -0.182753,1.21754 0.256967,0.66964 0.212915,2.21969 -0.09789,3.44455 l -0.565106,2.22702 -1.109831,-2.43145 -1.109831,-2.43145 0.169183,2.43145 c 0.157278,2.26036 -0.04467,2.44915 -2.87013,2.68299 -1.888363,0.15629 -3.039312,0.66625 -3.039312,1.34664 0,0.60229 -0.612362,1.00521 -1.360804,0.89536 -1.411848,-0.20722 -2.53611,-2.23954 -2.634648,-4.76264 -0.04436,-1.13589 0.245881,-1.28914 1.311773,-0.69264 1.034412,0.57889 2.139499,0.14659 4.524247,-1.76985 2.709142,-2.17713 3.111787,-2.91035 2.846425,-5.18337 -0.312627,-2.677871 0.01887,-3.144432 1.449195,-2.03967 0.432849,0.33432 -0.132463,-0.21094 -1.256249,-1.211703 -1.123786,-1.000759 -2.636845,-1.821373 -3.362354,-1.823588 -0.725509,-0.0022 -1.764701,-0.540934 -2.309316,-1.197155 -0.848781,-1.022719 -1.152282,-1.031057 -2.124959,-0.05838 -0.624112,0.624112 -3.140915,1.385403 -5.592896,1.691758 -4.364113,0.54526 -5.943975,2.058095 -3.234905,3.097658 0.672784,0.25817 1.150007,0.75309 1.060496,1.09982 -0.08951,0.34672 0.277935,2.59162 0.816546,4.98866 0.780537,3.47371 0.770918,4.61562 -0.04739,5.62634 -0.627042,0.77448 -0.665386,1.0516 -0.09851,0.71193 0.510498,-0.30589 1.148754,0.0186 1.418346,0.72119 0.671695,1.75041 0.690599,1.7138 -1.130799,2.1901 -0.891531,0.23314 -1.620966,0.84428 -1.620966,1.35809 0,0.5138 0.364717,0.70878 0.810483,0.43328 0.44686,-0.27617 0.833532,0.33871 0.861857,1.37052 0.05019,1.82835 0.06722,1.83221 0.740042,0.16765 0.510932,-1.26405 1.677376,-1.83929 4.519573,-2.22885 2.106996,-0.2888 4.235821,-1.03805 4.73072,-1.665 0.494895,-0.62695 2.085145,-1.38535 3.533884,-1.68534 2.034638,-0.42131 2.63407,-0.27138 2.63407,0.65881 0,0.83433 0.536854,1.06386 1.747704,0.74722 1.19745,-0.31314 1.565154,-0.16167 1.167893,0.48111 -0.318896,0.51599 -0.193569,0.93816 0.278504,0.93816 0.472074,0 0.858316,-0.59174 0.858316,-1.31497 0,-1.1131 0.198931,-1.14986 1.295852,-0.2395 1.17532,0.97543 1.172961,0.78134 -0.0254,-2.08674 -1.531333,-3.665 -1.184878,-5.27411 1.135562,-5.27411 2.020969,0 2.096036,0.69571 0.228058,2.1137 -0.942076,0.71514 -1.062092,1.08534 -0.35741,1.10246 0.583518,0.0142 0.83553,0.39049 0.560031,0.83626 -0.2755,0.44576 -0.114667,0.81048 0.357407,0.81048 0.472074,0 0.858318,0.61475 0.858318,1.36611 0,0.75136 0.743116,2.15712 1.651359,3.1239 l 1.651368,1.7578 -6.311643,1.2593 c -4.583352,0.91448 -6.604074,1.01812 -7.379589,0.37852 -0.856208,-0.70616 -0.718843,-1.06762 0.692827,-1.82313 0.968426,-0.51828 2.725513,-0.82464 3.904638,-0.68078 l 2.143865,0.26155 -2.026209,-0.66544 c -1.441349,-0.47337 -2.961982,-0.20632 -5.268141,0.92516 -3.421779,1.67885 -4.93525,2.77469 -2.763194,2.00072 0.709073,-0.25266 1.803225,-0.134 2.43145,0.2637 1.257464,0.79604 1.113829,0.8399 -3.720673,1.13631 -1.337297,0.082 -2.978526,0.37015 -3.647175,0.64036 -0.668648,0.27021 -4.412265,1.10136 -8.319149,1.847 -6.013422,1.14769 -7.311465,1.18652 -8.459202,0.25308 -1.183052,-0.96216 -1.288057,-0.92194 -0.824225,0.31571 0.411702,1.09855 0.103276,1.41835 -1.367908,1.41835 -1.044704,0 -2.962682,0.21264 -4.262174,0.47254 l -2.362712,0.47254 z m 13.833032,3.22529 c -0.258727,-0.64655 -0.450777,-0.4545 -0.489667,0.48967 -0.03519,0.85438 0.156365,1.33307 0.425682,1.06375 0.269316,-0.26931 0.29811,-0.96835 0.06399,-1.55342 z m 3.498764,0.15196 c 0,-0.44576 -0.160833,-0.81048 -0.357409,-0.81048 -0.196575,0 -0.582817,0.36472 -0.858316,0.81048 -0.275498,0.44577 -0.114663,0.81049 0.35741,0.81049 0.472073,0 0.858315,-0.36472 0.858315,-0.81049 z m -9.008443,-3.29949 c 1.01824,0.62931 4.578143,0.0926 7.559245,-1.13963 0.763121,-0.31544 1.609993,-1.27456 1.881939,-2.13138 0.271946,-0.85683 0.832905,-1.34869 1.246578,-1.09302 1.012751,0.62591 0.956719,0.2463 -0.466375,-3.15965 -0.697474,-1.66929 -2.257003,-3.45332 -3.647175,-4.17221 -1.335767,-0.69075 -2.428668,-1.81514 -2.428668,-2.49865 0,-0.68351 -0.370667,-1.01366 -0.823704,-0.73367 -0.453037,0.27999 -0.613872,0.84859 -0.35741,1.26356 0.256462,0.41496 -0.07625,0.75448 -0.73937,0.75448 -1.310593,0 -3.7529,-2.11633 -3.7529,-3.252 0,-1.40689 1.520101,-1.59598 2.771351,-0.34474 1.161445,1.16145 1.281066,1.16215 1.281066,0.007 0,-1.85237 2.507601,-1.56272 3.007096,0.34735 0.233141,0.89154 0.970969,1.62097 1.639618,1.62097 0.86523,0 1.074831,-0.52574 0.727022,-1.82359 -0.268786,-1.00297 -0.493682,-2.50086 -0.499769,-3.32864 -0.0079,-1.071184 -0.401266,-1.355328 -1.364615,-0.985656 -0.744451,0.285673 -1.628448,0.0746 -1.964437,-0.469034 -0.43574,-0.705042 -0.919068,-0.743197 -1.685765,-0.133075 -0.591181,0.470449 -2.410314,1.285255 -4.042518,1.810675 -1.632203,0.52542 -3.233023,1.57592 -3.557376,2.33445 -0.776917,1.81689 -1.149198,7.43923 -0.480885,7.26252 0.28712,-0.0759 1.689257,0.48404 3.11586,1.24434 1.426602,0.7603 3.15901,1.38236 3.849795,1.38236 0.690786,0 1.281608,0.63826 1.312939,1.41835 0.05173,1.28803 0.111086,1.28081 0.646031,-0.0786 0.520428,-1.3225 0.708089,-1.35351 1.610533,-0.26613 1.637696,1.9733 -0.491309,4.81291 -3.119479,4.16067 -2.542028,-0.63086 -4.05695,-1.86587 -4.05695,-3.30734 0,-0.61407 -0.52964,-1.11649 -1.176977,-1.11649 -0.843258,0 -1.107892,0.7699 -0.933325,2.71533 0.319648,3.56224 1.155305,4.89744 2.412261,3.85426 0.532472,-0.44191 1.448836,-0.50639 2.036364,-0.14328 z m 37.37536,-2.50897 c 0,-0.37147 -0.343191,-0.6754 -0.762649,-0.6754 -0.419457,0 -0.950493,0.30393 -1.180075,0.6754 -0.229582,0.37147 0.11361,0.6754 0.762652,0.6754 0.649035,0 1.180072,-0.30393 1.180072,-0.6754 z m 10.593317,-9.48415 c -0.445766,-0.83293 -0.560895,-1.764 -0.255846,-2.06905 0.305058,-0.30505 -0.08824,-0.30794 -0.873984,-0.006 -1.345435,0.51629 -1.348483,0.63678 -0.05228,2.06904 1.753497,1.9376 2.217005,1.94011 1.182131,0.006 z m -57.648249,-6.89179 c -0.760028,-0.70617 -0.869248,-0.45301 -0.479671,1.11184 0.27744,1.11441 0.564063,2.57328 0.636939,3.24193 0.07288,0.66865 0.288729,0.16832 0.479671,-1.11184 0.190942,-1.28016 -0.09568,-2.73903 -0.636939,-3.24193 z m 81.905713,0.0312 c 0,-0.59435 -0.54129,-1.08064 -1.20285,-1.08064 -0.91049,0 -0.98487,0.26266 -0.30601,1.08064 0.49327,0.59436 1.03456,1.08065 1.20286,1.08065 0.1683,0 0.306,-0.48629 0.306,-1.08065 z M 54.340383,97.394125 c 0,-0.472073 0.421069,-0.59808 0.935709,-0.280014 0.56661,0.350183 0.716222,0.223161 0.379286,-0.322013 -0.306033,-0.495173 -1.09182,-0.694862 -1.746193,-0.443755 -1.342756,0.515263 -1.619405,1.904098 -0.379286,1.904098 0.445766,0 0.810484,-0.386242 0.810484,-0.858316 z m 66.459627,-0.762651 c 0,-0.445765 -0.36471,-0.810483 -0.81048,-0.810483 -0.44576,0 -0.81048,0.364718 -0.81048,0.810483 0,0.445766 0.36472,0.810484 0.81048,0.810484 0.44577,0 0.81048,-0.364718 0.81048,-0.810484 z M 77.844399,93.032132 c 0,-0.196576 -0.364718,-0.582817 -0.810484,-0.858316 -0.445765,-0.275499 -0.810483,-0.114664 -0.810483,0.357409 0,0.472074 0.364718,0.858316 0.810483,0.858316 0.445766,0 0.810484,-0.160834 0.810484,-0.357409 z m 7.29435,-1.601259 c 0,-0.631501 0.455897,-1.332143 1.013104,-1.556981 0.60522,-0.244212 0.44207,-0.434557 -0.405242,-0.472782 -0.78009,-0.03519 -1.418346,0.452698 -1.418346,1.084199 0,0.631501 -0.455897,1.332143 -1.013104,1.556981 -0.605221,0.244212 -0.442068,0.434558 0.405242,0.472783 0.78009,0.03519 1.418346,-0.452698 1.418346,-1.0842 z m 12.967733,-3.261641 c 0,-0.196576 -0.364718,-0.582817 -0.810484,-0.858316 -0.445765,-0.275499 -0.810483,-0.114664 -0.810483,0.35741 0,0.472073 0.364718,0.858315 0.810483,0.858315 0.445766,0 0.810484,-0.160834 0.810484,-0.357409 z m -43.96872,38.723838 c 0.557207,-0.22483 1.469001,-0.22483 2.026208,0 0.557207,0.22484 0.10131,0.4088 -1.013104,0.4088 -1.114415,0 -1.570312,-0.18396 -1.013104,-0.4088 z m 7.902212,-1.53712 c 2.674595,-0.60352 5.592335,-1.0699 6.483867,-1.0364 2.444505,0.0919 -6.113121,2.145 -8.915317,2.13895 -1.518249,-0.003 -0.605048,-0.41737 2.43145,-1.10255 z m 9.523179,-1.72673 c 0.78009,-0.20386 2.056601,-0.20386 2.836692,0 0.78009,0.20386 0.141834,0.37065 -1.418346,0.37065 -1.560181,0 -2.198436,-0.16679 -1.418346,-0.37065 z m 9.117937,-1.47355 c 2.674595,-0.62643 5.957053,-1.11755 7.29435,-1.09137 l 2.43145,0.0476 -2.746874,0.64823 c -1.510781,0.35652 -4.793239,0.84764 -7.29435,1.09137 l -4.547476,0.44314 z m 11.346767,-1.90905 c 2.400254,-1.00644 8.083083,-1.78274 7.224397,-0.9869 -0.407292,0.3775 -2.564118,0.9069 -4.792947,1.17646 -2.474989,0.29934 -3.421447,0.22555 -2.43145,-0.18956 z m -4.228908,-2.7376 c -0.744161,-0.82229 -1.795001,-2.78071 -2.335205,-4.35205 -0.824723,-2.39898 -0.790845,-2.9304 0.211374,-3.31499 1.765881,-0.67763 3.442237,1.23248 1.911777,2.17836 -0.65201,0.40296 -1.01368,0.84367 -0.803708,0.97935 2.581114,1.66785 5.521345,3.27106 6.663016,3.63312 2.30037,0.72952 1.629914,1.67967 -1.437944,2.03783 -2.0528,0.23965 -3.2369,-0.0871 -4.20931,-1.16162 z m 13.397501,1.26233 c 0.58506,-0.23412 1.2841,-0.20533 1.55343,0.064 0.26931,0.26932 -0.20938,0.46088 -1.06376,0.42568 -0.94417,-0.0389 -1.13622,-0.23094 -0.48967,-0.48966 z m 5.0308,-0.98948 c 2.98718,-0.94827 10.45835,-1.82388 8.49414,-0.99549 -0.89153,0.37599 -3.62691,0.89966 -6.07863,1.1637 -2.68439,0.28909 -3.64528,0.22218 -2.41551,-0.16821 z m -69.653515,-2.17158 c 0.03889,-0.94416 0.23094,-1.13621 0.489667,-0.48966 0.234125,0.58506 0.205331,1.2841 -0.06399,1.55342 -0.269317,0.26932 -0.460874,-0.20937 -0.425682,-1.06376 z m 83.415795,-0.3377 c 1.57133,-1.01547 2.43145,-1.01547 2.43145,0 0,0.44577 -0.82061,0.8049 -1.82359,0.79807 -1.47462,-0.01 -1.59094,-0.16275 -0.60786,-0.79807 z m -84.566757,-5.24567 c -0.276555,-2.01769 -0.721697,-4.67175 -0.989205,-5.89792 -0.368009,-1.68682 -0.281422,-1.93521 0.355785,-1.02064 0.920757,1.32155 2.155156,9.56818 1.52634,10.197 -0.21455,0.21455 -0.616364,-1.26075 -0.89292,-3.27844 z m 90.741307,-0.70461 c -0.34252,-2.15825 -0.43656,-4.11028 -0.20899,-4.33786 0.59134,-0.59134 1.54172,4.97188 1.15528,6.76265 -0.17794,0.8246 -0.60377,-0.26655 -0.94629,-2.42479 z m -24.61304,0.46471 c -2.043079,-0.33673 -2.272972,-1.55672 -0.87254,-4.63034 0.68839,-1.51083 1.13266,-1.80118 1.60856,-1.05123 0.98825,1.55731 0.82675,2.09886 -0.73602,2.46796 -1.05974,0.25029 -0.85483,0.49245 0.81048,0.95777 3.47953,0.97226 2.8043,2.8516 -0.81048,2.25584 z m -36.090094,-6.46906 c -0.240357,-2.11739 -0.338372,-3.951177 -0.21781,-4.075091 0.120562,-0.123913 1.18158,0.140598 2.357817,0.587803 2.682898,1.020038 3.047741,5.172538 0.570928,6.498088 -2.245331,1.20166 -2.230939,1.21765 -2.710935,-3.0108 z m 17.497693,1.06864 c -0.530412,-0.6042 -0.746328,-1.31659 -0.479814,-1.58311 0.576917,-0.57691 2.659924,1.0144 2.659924,2.03206 0,1.03616 -1.069749,0.81587 -2.18011,-0.44895 z m 15.958326,-2.12957 c 0,-1.44648 0.337631,-2.270621 0.810483,-1.97838 0.445762,0.2755 0.810482,1.39117 0.810482,2.47928 0,1.08811 -0.36472,1.97838 -0.810482,1.97838 -0.445765,0 -0.810483,-1.11568 -0.810483,-2.47928 z m 10.808905,-0.45126 c 0.28601,-1.73145 0.54716,-3.877522 0.58031,-4.769054 l 0.0603,-1.620967 0.64714,1.620967 c 1.01029,2.53065 0.60237,7.113764 -0.67096,7.538204 -0.90073,0.30024 -1.02881,-0.27482 -0.61678,-2.76915 z m 15.12656,-0.3114 c 0,-1.33729 0.14097,-2.431446 0.31325,-2.431446 0.1723,0 0.47384,1.094156 0.67012,2.431446 0.19627,1.3373 0.0553,2.43145 -0.31325,2.43145 -0.36857,0 -0.67012,-1.09415 -0.67012,-2.43145 z m -19.01012,-0.6963 c -0.64016,-2.016976 0.15788,-3.896435 1.65449,-3.896435 0.71525,0 1.03454,0.472151 0.7756,1.146932 -0.24207,0.630813 -0.44012,1.846538 -0.44012,2.701613 0,1.98851 -1.36362,2.02133 -1.98997,0.0479 z M 33.378189,98.521349 c -0.0607,-0.520749 -0.331752,-1.523722 -0.602327,-2.228829 -0.382005,-0.995487 0.02556,-1.261 1.823587,-1.187995 1.273548,0.05171 1.699714,0.256492 0.947036,0.455071 -0.752678,0.19858 -1.523624,1.159245 -1.713214,2.134812 -0.189589,0.975567 -0.394376,1.34769 -0.455082,0.826941 z m 6.659276,-4.128036 c 0.268827,-0.43497 2.046908,-1.038559 3.951292,-1.341309 1.904385,-0.30275 4.33753,-0.768566 5.406991,-1.035146 1.232246,-0.307157 1.755413,-0.178783 1.428312,0.350476 -0.28389,0.459343 -2.253054,1.080384 -4.375923,1.380095 -2.12287,0.299709 -4.543691,0.745584 -5.379604,0.990832 -0.878124,0.257634 -1.313469,0.111987 -1.031068,-0.344948 z m 83.352005,-2.219497 c 0.0165,-1.337297 0.19816,-1.786253 0.40365,-0.997679 0.20549,0.788574 0.19198,1.882726 -0.0301,2.43145 -0.22197,0.548723 -0.3901,-0.09647 -0.37358,-1.433771 z M 52.56745,92.025405 c 0.585068,-0.234125 1.28411,-0.205331 1.553427,0.06399 0.269316,0.269317 -0.209376,0.460874 -1.063759,0.425682 -0.944167,-0.03889 -1.136217,-0.23094 -0.489668,-0.489667 z m 3.611945,-0.818488 c 0.788574,-0.205493 1.882726,-0.191979 2.43145,0.03003 0.548723,0.222013 -0.09647,0.390144 -1.433771,0.373627 -1.337297,-0.01652 -1.786253,-0.198162 -0.997679,-0.403655 z m 10.318237,-1.892572 c 3.78901,-0.835957 7.983261,-1.487863 9.320558,-1.448681 2.121309,0.06216 2.172999,0.113207 0.405242,0.400251 -1.114414,0.180956 -4.237815,0.860723 -6.940889,1.510594 -2.703075,0.64987 -5.985532,1.153722 -7.29435,1.11967 -1.308818,-0.03405 0.72043,-0.745877 4.509439,-1.581834 z M 122.515,87.579824 c -0.0517,-0.743631 -0.30392,-2.020143 -0.56046,-2.836692 -0.4421,-1.407179 -0.41811,-1.409309 0.45977,-0.04082 0.50941,0.794096 0.76161,2.070608 0.56045,2.836692 -0.32949,1.254834 -0.37506,1.25888 -0.45976,0.04082 z M 80.123883,87.162505 c 0.585068,-0.234125 1.28411,-0.205331 1.553427,0.06399 0.269316,0.269317 -0.209376,0.460874 -1.06376,0.425682 -0.944166,-0.03889 -1.136216,-0.23094 -0.489667,-0.489667 z m 9.472524,-1.899311 c 8.264652,-1.700776 8.976305,-1.795525 8.283658,-1.102873 -0.754819,0.754819 -10.389213,2.694069 -13.146558,2.646191 -1.337297,-0.02322 0.851007,-0.717714 4.8629,-1.543318 z m 9.693851,-1.54776 c 0.29307,-0.474197 1.848632,-0.862176 3.456792,-0.862176 3.57666,0 3.26826,0.41091 -0.87055,1.159899 -2.123829,0.384342 -2.949063,0.289342 -2.586242,-0.297723 z M 107.23984,82.2916 c 0.78858,-0.205492 1.88273,-0.191978 2.43145,0.03003 0.54872,0.22201 -0.0965,0.39014 -1.43377,0.373623 -1.33729,-0.01652 -1.78625,-0.198162 -0.99768,-0.403655 z m 14.37066,-0.613515 c 0,-1.109875 -0.42325,-1.326789 -1.82359,-0.934584 -2.82122,0.790164 -9.16655,1.580674 -8.7127,1.085439 0.22289,-0.243206 1.82685,-0.665887 3.56436,-0.939291 1.73753,-0.273405 4.01361,-0.71156 5.05798,-0.973679 1.32539,-0.332652 2.05375,-0.07291 2.41176,0.860067 0.28211,0.735155 0.2855,1.564063 0.007,1.842015 -0.2777,0.277952 -0.50511,-0.145033 -0.50511,-0.939967 z"
         id="path969"
         inkscape:connector-curvature="0" />
      <path
         style="fill:#ca262d;stroke-width:0.81048334;"
         d="m 38.253195,126.48509 c -0.513129,-2.223 -0.889488,-5.01696 -0.836353,-6.20881 0.05314,-1.19185 0.556987,0.15543 1.119671,2.99395 0.562683,2.83852 1.461583,5.43196 1.997554,5.76321 0.725877,0.44862 0.678243,0.71595 -0.186708,1.04787 -0.84946,0.32596 -1.41167,-0.6395 -2.094164,-3.59622 z m 3.929938,2.56572 c 0,-0.44577 1.002973,-0.78485 2.228829,-0.75352 1.975021,0.0505 2.044241,0.13628 0.607862,0.75352 -2.213738,0.95127 -2.836691,0.95127 -2.836691,0 z m 5.876004,-1.36917 c 0.78009,-0.20386 2.056601,-0.20386 2.836691,0 0.780091,0.20386 0.141835,0.37065 -1.418345,0.37065 -1.560181,0 -2.198436,-0.16679 -1.418346,-0.37065 z m -8.619101,-7.68147 C 37.5468,110.20623 35.708642,97.162421 36.158327,96.712736 c 0.193283,-0.193283 0.351422,0.118739 0.351422,0.69338 0,0.730792 0.304484,0.799518 1.013105,0.228669 1.396717,-1.125164 9.199099,-2.747407 14.106063,-2.932881 1.406172,-0.05315 2.387621,-0.370176 2.180998,-0.7045 -0.206625,-0.334325 0.214445,-0.607863 0.935709,-0.607863 0.824732,0 1.091553,0.375964 0.718999,1.013104 -0.325816,0.557207 0.199736,0.318322 1.167892,-0.530857 0.980136,-0.859684 1.760284,-1.129086 1.760284,-0.607862 0,0.514855 -0.353271,0.936098 -0.785046,0.936098 -0.431776,0 -0.575114,0.547077 -0.318529,1.215725 0.722013,1.881537 1.914058,1.435651 1.914058,-0.715955 0,-2.168984 3.140712,-3.575975 4.213629,-1.887641 0.483419,0.760705 0.627253,0.753822 0.63686,-0.03047 0.01482,-1.209813 3.749959,-1.367785 4.47824,-0.189401 0.279993,0.453037 0.848593,0.613872 1.263557,0.35741 0.414965,-0.256462 0.754481,-0.05853 0.754481,0.439853 0,0.498382 0.348789,0.690585 0.775086,0.427118 0.426297,-0.263466 0.58228,-0.981476 0.346627,-1.595578 -0.458956,-1.19602 0.579126,-1.653631 5.767395,-2.542406 1.783063,-0.305447 3.971368,-0.711517 4.8629,-0.902377 3.57022,-0.764318 12.153295,-1.7395 12.475381,-1.417414 0.188761,0.188765 0.741487,0.02377 1.228263,-0.366652 0.486784,-0.390426 2.161567,-0.956466 3.721747,-1.25787 2.088012,-0.403374 2.515832,-0.324396 1.620972,0.299242 -0.66865,0.465987 -0.85101,0.841235 -0.40525,0.833884 0.44577,-0.0074 1.51845,-0.548843 2.38374,-1.203314 2.17632,-1.646087 3.15126,-1.487488 2.64957,0.431017 -0.23315,0.891532 -0.0933,1.620967 0.31071,1.620967 0.40404,0 0.73461,-0.647894 0.73461,-1.439764 0,-1.183697 0.55972,-1.386386 3.14708,-1.139641 1.73089,0.165067 3.35286,-0.03284 3.60437,-0.439792 0.25542,-0.413288 -0.6866,-0.580115 -2.13397,-0.377918 -1.42521,0.199098 -2.38226,0.136845 -2.1268,-0.138341 0.35681,-0.384367 10.41978,-2.111674 10.49325,-1.801165 1.85613,7.844276 3.29894,20.735799 2.32074,20.735799 -0.39378,0 -0.71597,0.35327 -0.71597,0.78505 0,0.43177 0.54707,0.57511 1.21572,0.31853 0.75317,-0.28902 1.21573,0.004 1.21573,0.76963 0,0.67988 0.24433,1.87289 0.54297,2.65112 0.36084,0.94032 0.23638,1.22548 -0.37102,0.85009 -0.53942,-0.33338 -0.44101,0.3468 0.24014,1.65971 0.89222,1.71976 0.93048,2.36282 0.1686,2.83369 -0.59034,0.36485 -1.20653,0.0523 -1.53664,-0.77956 -0.51416,-1.29563 -0.55491,-1.29364 -0.60805,0.0297 -0.0409,1.01789 -0.80067,1.45748 -2.69104,1.55698 -4.4939,0.23651 -5.04323,0.31241 -5.87698,0.81196 -0.44523,0.26678 -2.77092,0.74974 -5.16819,1.07326 -3.11897,0.42091 -4.20034,0.33201 -3.80197,-0.31258 0.3062,-0.49544 0.17049,-0.90079 -0.30159,-0.90079 -0.47207,0 -0.85831,0.50566 -0.85831,1.1237 0,1.14174 -6.97637,2.70638 -7.908961,1.77379 -0.256323,-0.25632 -0.04053,-0.46604 0.479523,-0.46604 0.520063,0 0.945566,-0.3084 0.945566,-0.68532 0,-0.37693 -1.002973,-0.63117 -2.228829,-0.56497 -2.562756,0.13838 -4.615346,-1.24828 -3.17942,-2.14791 0.492919,-0.30882 1.392151,-0.14991 1.998287,0.35313 0.829019,0.68802 1.265967,0.64941 1.763652,-0.15586 0.506009,-0.81873 0.879391,-0.66352 1.587713,0.65998 0.642964,1.2014 1.702071,1.73046 3.464129,1.73046 1.39591,0 2.26912,-0.26888 1.94049,-0.59752 -0.32864,-0.32864 -1.02769,-0.60218 -1.55343,-0.60786 -0.52574,-0.006 -1.01593,-0.33428 -1.089297,-0.73021 -0.07335,-0.39593 -0.601419,-1.00912 -1.173451,-1.36266 -1.098982,-0.67921 0.367076,-1.1696 5.651558,-1.89045 2.8775,-0.39251 6.49405,-3.35562 4.78923,-3.9239 -0.72531,-0.24177 -0.72526,-0.45486 1.6e-4,-0.9032 0.59835,-0.3698 1.14053,0.1747 1.46628,1.47258 0.32566,1.29753 1.08402,2.05936 2.04998,2.05936 2.00765,0 1.93487,0.62072 -0.29049,2.47719 -1.00297,0.83671 -1.36769,1.53343 -0.81048,1.54826 0.5572,0.0148 1.0131,-0.31318 1.0131,-0.7289 0,-0.41573 0.71083,-0.98148 1.57961,-1.25722 0.95573,-0.30333 1.40164,-0.96512 1.12901,-1.67558 -0.34213,-0.89158 0.25312,-1.17424 2.47281,-1.17424 1.60788,0 2.9234,-0.32006 2.9234,-0.71124 0,-0.97497 -2.40841,-2.90393 -2.52465,-2.02207 -0.0513,0.38891 -0.37777,-0.75176 -0.72556,-2.53483 -0.4141,-2.12301 -0.31201,-3.645284 0.29582,-4.41061 0.68276,-0.859663 0.68467,-1.022803 0.007,-0.616978 -1.32344,0.792811 -2.05327,-2.738916 -0.86871,-4.203747 0.66107,-0.817474 0.67764,-1.030171 0.051,-0.654692 -0.51049,0.305891 -1.1336,0.02083 -1.38468,-0.63347 -0.25108,-0.654299 0.0173,-1.472819 0.59631,-1.818932 0.89872,-0.537223 2.41465,-4.276473 1.73368,-4.276473 -0.12997,0 -1.4584,0.51385 -2.95207,1.141888 -1.98953,0.836536 -3.14189,0.913823 -4.30934,0.28902 -1.14693,-0.613816 -1.68019,-0.593121 -1.9025,0.07383 -0.1699,0.50969 -1.00795,0.926707 -1.86233,0.926707 -0.85439,0 -1.55343,0.314142 -1.55343,0.698092 0,0.383952 0.9118,0.523792 2.02621,0.310758 2.21413,-0.423258 2.78825,1.146849 1.05363,2.88147 -1.37812,1.378111 -2.01755,1.212548 -2.50419,-0.648386 -0.23446,-0.896557 -1.09166,-1.609448 -1.91812,-1.595191 -1.3998,0.02414 -1.39204,0.10299 0.1228,1.247727 1.38817,1.049014 1.44552,1.331466 0.40524,1.995768 -0.8839,0.564438 -1.61789,0.2846 -2.71267,-1.034216 -1.48338,-1.786932 -1.47481,-1.818695 0.73397,-2.72153 l 2.23485,-0.913498 -2.50835,-0.368147 c -1.3796,-0.202483 -2.487303,-0.161026 -2.461578,0.09212 0.211328,2.079178 -0.327135,2.640664 -2.190728,2.284416 -1.125048,-0.215068 -2.240727,-0.07523 -2.479277,0.310758 -0.238557,0.385984 -1.415185,0.713389 -2.614732,0.727566 -2.028916,0.02398 -2.078031,0.103825 -0.704367,1.145072 1.428517,1.082827 1.428517,1.131739 0,1.501173 -1.120177,0.289695 -0.987509,0.427742 0.549581,0.571873 1.114414,0.104498 2.278463,0.1539 2.586771,0.109783 0.609872,-0.08727 1.377821,4.663769 1.680099,10.394239 0.261689,4.96095 -1.919451,5.508 -4.085549,1.0247 -1.516982,-3.13979 -1.515952,-3.16504 0.159049,-3.93049 0.927209,-0.42373 1.57541,-1.27071 1.440432,-1.8822 -0.13497,-0.61148 0.177504,-1.37316 0.694397,-1.692613 1.398643,-0.864412 -0.163896,-1.411504 -2.398803,-0.83989 -1.848389,0.472757 -1.876877,0.571629 -0.547644,1.900873 1.253259,1.25325 1.266461,1.45424 0.124328,1.89252 -1.464,0.56179 -4.446927,-2.56281 -4.489016,-4.702222 -0.01483,-0.753782 -0.387629,-1.593415 -0.828435,-1.865851 -0.915781,-0.565981 1.098497,-4.193175 3.37871,-6.084193 1.38369,-1.14752 1.352519,-1.215725 -0.555651,-1.215725 -1.245186,0 -2.031484,0.466904 -2.047362,1.215725 -0.0419,1.974763 -2.048237,4.052416 -3.91337,4.052416 -1.001225,0 -1.73424,0.513854 -1.73424,1.215725 0,1.259266 -1.64386,1.334614 -2.53276,0.116092 -0.278604,-0.381916 -0.771197,-0.266188 -1.094652,0.257172 -0.360107,0.582667 0.07192,1.124165 1.114415,1.396782 2.173188,0.568302 2.418754,4.302319 0.284168,4.320999 -0.873894,0.008 -1.076509,0.24098 -0.52783,0.60786 1.020795,0.68256 1.193491,3.43214 0.215566,3.43214 -0.357482,0 -0.43972,0.54789 -0.182753,1.21754 0.256967,0.66964 0.212915,2.21969 -0.09789,3.44455 l -0.565106,2.22702 -1.109831,-2.43145 -1.109831,-2.43145 0.169183,2.43145 c 0.157278,2.26036 -0.04467,2.44915 -2.87013,2.68299 -1.888363,0.15629 -3.039312,0.66625 -3.039312,1.34664 0,0.60229 -0.612362,1.00521 -1.360804,0.89536 -1.411848,-0.20722 -2.53611,-2.23954 -2.634648,-4.76264 -0.04436,-1.13589 0.245881,-1.28914 1.311773,-0.69264 1.034412,0.57889 2.139499,0.14659 4.524247,-1.76985 2.709142,-2.17713 3.111787,-2.91035 2.846425,-5.18337 -0.312627,-2.677871 0.01887,-3.144432 1.449195,-2.03967 0.432849,0.33432 -0.132463,-0.21094 -1.256249,-1.211703 -1.123786,-1.000759 -2.636845,-1.821373 -3.362354,-1.823588 -0.725509,-0.0022 -1.764701,-0.540934 -2.309316,-1.197155 -0.848781,-1.022719 -1.152282,-1.031057 -2.124959,-0.05838 -0.624112,0.624112 -3.140915,1.385403 -5.592896,1.691758 -4.364113,0.54526 -5.943975,2.058095 -3.234905,3.097658 0.672784,0.25817 1.150007,0.75309 1.060496,1.09982 -0.08951,0.34672 0.277935,2.59162 0.816546,4.98866 0.780537,3.47371 0.770918,4.61562 -0.04739,5.62634 -0.627042,0.77448 -0.665386,1.0516 -0.09851,0.71193 0.510498,-0.30589 1.148754,0.0186 1.418346,0.72119 0.671695,1.75041 0.690599,1.7138 -1.130799,2.1901 -0.891531,0.23314 -1.620966,0.84428 -1.620966,1.35809 0,0.5138 0.364717,0.70878 0.810483,0.43328 0.44686,-0.27617 0.833532,0.33871 0.861857,1.37052 0.05019,1.82835 0.06722,1.83221 0.740042,0.16765 0.510932,-1.26405 1.677376,-1.83929 4.519573,-2.22885 2.106996,-0.2888 4.235821,-1.03805 4.73072,-1.665 0.494895,-0.62695 2.085145,-1.38535 3.533884,-1.68534 2.034638,-0.42131 2.63407,-0.27138 2.63407,0.65881 0,0.83433 0.536854,1.06386 1.747704,0.74722 1.19745,-0.31314 1.565154,-0.16167 1.167893,0.48111 -0.318896,0.51599 -0.193569,0.93816 0.278504,0.93816 0.472074,0 0.858316,-0.59174 0.858316,-1.31497 0,-1.1131 0.198931,-1.14986 1.295852,-0.2395 1.17532,0.97543 1.172961,0.78134 -0.0254,-2.08674 -1.531333,-3.665 -1.184878,-5.27411 1.135562,-5.27411 2.020969,0 2.096036,0.69571 0.228058,2.1137 -0.942076,0.71514 -1.062092,1.08534 -0.35741,1.10246 0.583518,0.0142 0.83553,0.39049 0.560031,0.83626 -0.2755,0.44576 -0.114667,0.81048 0.357407,0.81048 0.472074,0 0.858318,0.61475 0.858318,1.36611 0,0.75136 0.743116,2.15712 1.651359,3.1239 l 1.651368,1.7578 -6.311643,1.2593 c -4.583352,0.91448 -6.604074,1.01812 -7.379589,0.37852 -0.856208,-0.70616 -0.718843,-1.06762 0.692827,-1.82313 0.968426,-0.51828 2.725513,-0.82464 3.904638,-0.68078 l 2.143865,0.26155 -2.026209,-0.66544 c -1.441349,-0.47337 -2.961982,-0.20632 -5.268141,0.92516 -3.421779,1.67885 -4.93525,2.77469 -2.763194,2.00072 0.709073,-0.25266 1.803225,-0.134 2.43145,0.2637 1.257464,0.79604 1.113829,0.8399 -3.720673,1.13631 -1.337297,0.082 -2.978526,0.37015 -3.647175,0.64036 -0.668648,0.27021 -4.412265,1.10136 -8.319149,1.847 -6.013422,1.14769 -7.311465,1.18652 -8.459202,0.25308 -1.183052,-0.96216 -1.288057,-0.92194 -0.824225,0.31571 0.411702,1.09855 0.103276,1.41835 -1.367908,1.41835 -1.044704,0 -2.962682,0.21264 -4.262174,0.47254 l -2.362712,0.47254 z m 13.833032,3.22529 c -0.258727,-0.64655 -0.450777,-0.4545 -0.489667,0.48967 -0.03519,0.85438 0.156365,1.33307 0.425682,1.06375 0.269316,-0.26931 0.29811,-0.96835 0.06399,-1.55342 z m 3.498764,0.15196 c 0,-0.44576 -0.160833,-0.81048 -0.357409,-0.81048 -0.196575,0 -0.582817,0.36472 -0.858316,0.81048 -0.275498,0.44577 -0.114663,0.81049 0.35741,0.81049 0.472073,0 0.858315,-0.36472 0.858315,-0.81049 z m -9.008443,-3.29949 c 1.01824,0.62931 4.578143,0.0926 7.559245,-1.13963 0.763121,-0.31544 1.609993,-1.27456 1.881939,-2.13138 0.271946,-0.85683 0.832905,-1.34869 1.246578,-1.09302 1.012751,0.62591 0.956719,0.2463 -0.466375,-3.15965 -0.697474,-1.66929 -2.257003,-3.45332 -3.647175,-4.17221 -1.335767,-0.69075 -2.428668,-1.81514 -2.428668,-2.49865 0,-0.68351 -0.370667,-1.01366 -0.823704,-0.73367 -0.453037,0.27999 -0.613872,0.84859 -0.35741,1.26356 0.256462,0.41496 -0.07625,0.75448 -0.73937,0.75448 -1.310593,0 -3.7529,-2.11633 -3.7529,-3.252 0,-1.40689 1.520101,-1.59598 2.771351,-0.34474 1.161445,1.16145 1.281066,1.16215 1.281066,0.007 0,-1.85237 2.507601,-1.56272 3.007096,0.34735 0.233141,0.89154 0.970969,1.62097 1.639618,1.62097 0.86523,0 1.074831,-0.52574 0.727022,-1.82359 -0.268786,-1.00297 -0.493682,-2.50086 -0.499769,-3.32864 -0.0079,-1.071184 -0.401266,-1.355328 -1.364615,-0.985656 -0.744451,0.285673 -1.628448,0.0746 -1.964437,-0.469034 -0.43574,-0.705042 -0.919068,-0.743197 -1.685765,-0.133075 -0.591181,0.470449 -2.410314,1.285255 -4.042518,1.810675 -1.632203,0.52542 -3.233023,1.57592 -3.557376,2.33445 -0.776917,1.81689 -1.149198,7.43923 -0.480885,7.26252 0.28712,-0.0759 1.689257,0.48404 3.11586,1.24434 1.426602,0.7603 3.15901,1.38236 3.849795,1.38236 0.690786,0 1.281608,0.63826 1.312939,1.41835 0.05173,1.28803 0.111086,1.28081 0.646031,-0.0786 0.520428,-1.3225 0.708089,-1.35351 1.610533,-0.26613 1.637696,1.9733 -0.491309,4.81291 -3.119479,4.16067 -2.542028,-0.63086 -4.05695,-1.86587 -4.05695,-3.30734 0,-0.61407 -0.52964,-1.11649 -1.176977,-1.11649 -0.843258,0 -1.107892,0.7699 -0.933325,2.71533 0.319648,3.56224 1.155305,4.89744 2.412261,3.85426 0.532472,-0.44191 1.448836,-0.50639 2.036364,-0.14328 z m 37.37536,-2.50897 c 0,-0.37147 -0.343191,-0.6754 -0.762649,-0.6754 -0.419457,0 -0.950493,0.30393 -1.180075,0.6754 -0.229582,0.37147 0.11361,0.6754 0.762652,0.6754 0.649035,0 1.180072,-0.30393 1.180072,-0.6754 z m 10.593317,-9.48415 c -0.445766,-0.83293 -0.560895,-1.764 -0.255846,-2.06905 0.305058,-0.30505 -0.08824,-0.30794 -0.873984,-0.006 -1.345435,0.51629 -1.348483,0.63678 -0.05228,2.06904 1.753497,1.9376 2.217005,1.94011 1.182131,0.006 z m -57.648249,-6.89179 c -0.760028,-0.70617 -0.869248,-0.45301 -0.479671,1.11184 0.27744,1.11441 0.564063,2.57328 0.636939,3.24193 0.07288,0.66865 0.288729,0.16832 0.479671,-1.11184 0.190942,-1.28016 -0.09568,-2.73903 -0.636939,-3.24193 z m 81.905713,0.0312 c 0,-0.59435 -0.54129,-1.08064 -1.20285,-1.08064 -0.91049,0 -0.98487,0.26266 -0.30601,1.08064 0.49327,0.59436 1.03456,1.08065 1.20286,1.08065 0.1683,0 0.306,-0.48629 0.306,-1.08065 z M 54.340383,97.394125 c 0,-0.472073 0.421069,-0.59808 0.935709,-0.280014 0.56661,0.350183 0.716222,0.223161 0.379286,-0.322013 -0.306033,-0.495173 -1.09182,-0.694862 -1.746193,-0.443755 -1.342756,0.515263 -1.619405,1.904098 -0.379286,1.904098 0.445766,0 0.810484,-0.386242 0.810484,-0.858316 z m 66.459627,-0.762651 c 0,-0.445765 -0.36471,-0.810483 -0.81048,-0.810483 -0.44576,0 -0.81048,0.364718 -0.81048,0.810483 0,0.445766 0.36472,0.810484 0.81048,0.810484 0.44577,0 0.81048,-0.364718 0.81048,-0.810484 z M 77.844399,93.032132 c 0,-0.196576 -0.364718,-0.582817 -0.810484,-0.858316 -0.445765,-0.275499 -0.810483,-0.114664 -0.810483,0.357409 0,0.472074 0.364718,0.858316 0.810483,0.858316 0.445766,0 0.810484,-0.160834 0.810484,-0.357409 z m 7.29435,-1.601259 c 0,-0.631501 0.455897,-1.332143 1.013104,-1.556981 0.60522,-0.244212 0.44207,-0.434557 -0.405242,-0.472782 -0.78009,-0.03519 -1.418346,0.452698 -1.418346,1.084199 0,0.631501 -0.455897,1.332143 -1.013104,1.556981 -0.605221,0.244212 -0.442068,0.434558 0.405242,0.472783 0.78009,0.03519 1.418346,-0.452698 1.418346,-1.0842 z m 12.967733,-3.261641 c 0,-0.196576 -0.364718,-0.582817 -0.810484,-0.858316 -0.445765,-0.275499 -0.810483,-0.114664 -0.810483,0.35741 0,0.472073 0.364718,0.858315 0.810483,0.858315 0.445766,0 0.810484,-0.160834 0.810484,-0.357409 z m -43.96872,38.723838 c 0.557207,-0.22483 1.469001,-0.22483 2.026208,0 0.557207,0.22484 0.10131,0.4088 -1.013104,0.4088 -1.114415,0 -1.570312,-0.18396 -1.013104,-0.4088 z m 7.902212,-1.53712 c 2.674595,-0.60352 5.592335,-1.0699 6.483867,-1.0364 2.444505,0.0919 -6.113121,2.145 -8.915317,2.13895 -1.518249,-0.003 -0.605048,-0.41737 2.43145,-1.10255 z m 9.523179,-1.72673 c 0.78009,-0.20386 2.056601,-0.20386 2.836692,0 0.78009,0.20386 0.141834,0.37065 -1.418346,0.37065 -1.560181,0 -2.198436,-0.16679 -1.418346,-0.37065 z m 9.117937,-1.47355 c 2.674595,-0.62643 5.957053,-1.11755 7.29435,-1.09137 l 2.43145,0.0476 -2.746874,0.64823 c -1.510781,0.35652 -4.793239,0.84764 -7.29435,1.09137 l -4.547476,0.44314 z m 11.346767,-1.90905 c 2.400254,-1.00644 8.083083,-1.78274 7.224397,-0.9869 -0.407292,0.3775 -2.564118,0.9069 -4.792947,1.17646 -2.474989,0.29934 -3.421447,0.22555 -2.43145,-0.18956 z m -4.228908,-2.7376 c -0.744161,-0.82229 -1.795001,-2.78071 -2.335205,-4.35205 -0.824723,-2.39898 -0.790845,-2.9304 0.211374,-3.31499 1.765881,-0.67763 3.442237,1.23248 1.911777,2.17836 -0.65201,0.40296 -1.01368,0.84367 -0.803708,0.97935 2.581114,1.66785 5.521345,3.27106 6.663016,3.63312 2.30037,0.72952 1.629914,1.67967 -1.437944,2.03783 -2.0528,0.23965 -3.2369,-0.0871 -4.20931,-1.16162 z m 13.397501,1.26233 c 0.58506,-0.23412 1.2841,-0.20533 1.55343,0.064 0.26931,0.26932 -0.20938,0.46088 -1.06376,0.42568 -0.94417,-0.0389 -1.13622,-0.23094 -0.48967,-0.48966 z m 5.0308,-0.98948 c 2.98718,-0.94827 10.45835,-1.82388 8.49414,-0.99549 -0.89153,0.37599 -3.62691,0.89966 -6.07863,1.1637 -2.68439,0.28909 -3.64528,0.22218 -2.41551,-0.16821 z m -69.653515,-2.17158 c 0.03889,-0.94416 0.23094,-1.13621 0.489667,-0.48966 0.234125,0.58506 0.205331,1.2841 -0.06399,1.55342 -0.269317,0.26932 -0.460874,-0.20937 -0.425682,-1.06376 z m 83.415795,-0.3377 c 1.57133,-1.01547 2.43145,-1.01547 2.43145,0 0,0.44577 -0.82061,0.8049 -1.82359,0.79807 -1.47462,-0.01 -1.59094,-0.16275 -0.60786,-0.79807 z m -84.566757,-5.24567 c -0.276555,-2.01769 -0.721697,-4.67175 -0.989205,-5.89792 -0.368009,-1.68682 -0.281422,-1.93521 0.355785,-1.02064 0.920757,1.32155 2.155156,9.56818 1.52634,10.197 -0.21455,0.21455 -0.616364,-1.26075 -0.89292,-3.27844 z m 90.741307,-0.70461 c -0.34252,-2.15825 -0.43656,-4.11028 -0.20899,-4.33786 0.59134,-0.59134 1.54172,4.97188 1.15528,6.76265 -0.17794,0.8246 -0.60377,-0.26655 -0.94629,-2.42479 z m -24.61304,0.46471 c -2.043079,-0.33673 -2.272972,-1.55672 -0.87254,-4.63034 0.68839,-1.51083 1.13266,-1.80118 1.60856,-1.05123 0.98825,1.55731 0.82675,2.09886 -0.73602,2.46796 -1.05974,0.25029 -0.85483,0.49245 0.81048,0.95777 3.47953,0.97226 2.8043,2.8516 -0.81048,2.25584 z m -36.090094,-6.46906 c -0.240357,-2.11739 -0.338372,-3.951177 -0.21781,-4.075091 0.120562,-0.123913 1.18158,0.140598 2.357817,0.587803 2.682898,1.020038 3.047741,5.172538 0.570928,6.498088 -2.245331,1.20166 -2.230939,1.21765 -2.710935,-3.0108 z m 17.497693,1.06864 c -0.530412,-0.6042 -0.746328,-1.31659 -0.479814,-1.58311 0.576917,-0.57691 2.659924,1.0144 2.659924,2.03206 0,1.03616 -1.069749,0.81587 -2.18011,-0.44895 z m 15.958326,-2.12957 c 0,-1.44648 0.337631,-2.270621 0.810483,-1.97838 0.445762,0.2755 0.810482,1.39117 0.810482,2.47928 0,1.08811 -0.36472,1.97838 -0.810482,1.97838 -0.445765,0 -0.810483,-1.11568 -0.810483,-2.47928 z m 10.808905,-0.45126 c 0.28601,-1.73145 0.54716,-3.877522 0.58031,-4.769054 l 0.0603,-1.620967 0.64714,1.620967 c 1.01029,2.53065 0.60237,7.113764 -0.67096,7.538204 -0.90073,0.30024 -1.02881,-0.27482 -0.61678,-2.76915 z m 15.12656,-0.3114 c 0,-1.33729 0.14097,-2.431446 0.31325,-2.431446 0.1723,0 0.47384,1.094156 0.67012,2.431446 0.19627,1.3373 0.0553,2.43145 -0.31325,2.43145 -0.36857,0 -0.67012,-1.09415 -0.67012,-2.43145 z m -19.01012,-0.6963 c -0.64016,-2.016976 0.15788,-3.896435 1.65449,-3.896435 0.71525,0 1.03454,0.472151 0.7756,1.146932 -0.24207,0.630813 -0.44012,1.846538 -0.44012,2.701613 0,1.98851 -1.36362,2.02133 -1.98997,0.0479 z M 33.378189,98.521349 c -0.0607,-0.520749 -0.331752,-1.523722 -0.602327,-2.228829 -0.382005,-0.995487 0.02556,-1.261 1.823587,-1.187995 1.273548,0.05171 1.699714,0.256492 0.947036,0.455071 -0.752678,0.19858 -1.523624,1.159245 -1.713214,2.134812 -0.189589,0.975567 -0.394376,1.34769 -0.455082,0.826941 z m 6.659276,-4.128036 c 0.268827,-0.43497 2.046908,-1.038559 3.951292,-1.341309 1.904385,-0.30275 4.33753,-0.768566 5.406991,-1.035146 1.232246,-0.307157 1.755413,-0.178783 1.428312,0.350476 -0.28389,0.459343 -2.253054,1.080384 -4.375923,1.380095 -2.12287,0.299709 -4.543691,0.745584 -5.379604,0.990832 -0.878124,0.257634 -1.313469,0.111987 -1.031068,-0.344948 z m 83.352005,-2.219497 c 0.0165,-1.337297 0.19816,-1.786253 0.40365,-0.997679 0.20549,0.788574 0.19198,1.882726 -0.0301,2.43145 -0.22197,0.548723 -0.3901,-0.09647 -0.37358,-1.433771 z M 52.56745,92.025405 c 0.585068,-0.234125 1.28411,-0.205331 1.553427,0.06399 0.269316,0.269317 -0.209376,0.460874 -1.063759,0.425682 -0.944167,-0.03889 -1.136217,-0.23094 -0.489668,-0.489667 z m 3.611945,-0.818488 c 0.788574,-0.205493 1.882726,-0.191979 2.43145,0.03003 0.548723,0.222013 -0.09647,0.390144 -1.433771,0.373627 -1.337297,-0.01652 -1.786253,-0.198162 -0.997679,-0.403655 z m 10.318237,-1.892572 c 3.78901,-0.835957 7.983261,-1.487863 9.320558,-1.448681 2.121309,0.06216 2.172999,0.113207 0.405242,0.400251 -1.114414,0.180956 -4.237815,0.860723 -6.940889,1.510594 -2.703075,0.64987 -5.985532,1.153722 -7.29435,1.11967 -1.308818,-0.03405 0.72043,-0.745877 4.509439,-1.581834 z M 122.515,87.579824 c -0.0517,-0.743631 -0.30392,-2.020143 -0.56046,-2.836692 -0.4421,-1.407179 -0.41811,-1.409309 0.45977,-0.04082 0.50941,0.794096 0.76161,2.070608 0.56045,2.836692 -0.32949,1.254834 -0.37506,1.25888 -0.45976,0.04082 z M 80.123883,87.162505 c 0.585068,-0.234125 1.28411,-0.205331 1.553427,0.06399 0.269316,0.269317 -0.209376,0.460874 -1.06376,0.425682 -0.944166,-0.03889 -1.136216,-0.23094 -0.489667,-0.489667 z m 9.472524,-1.899311 c 8.264652,-1.700776 8.976305,-1.795525 8.283658,-1.102873 -0.754819,0.754819 -10.389213,2.694069 -13.146558,2.646191 -1.337297,-0.02322 0.851007,-0.717714 4.8629,-1.543318 z m 9.693851,-1.54776 c 0.29307,-0.474197 1.848632,-0.862176 3.456792,-0.862176 3.57666,0 3.26826,0.41091 -0.87055,1.159899 -2.123829,0.384342 -2.949063,0.289342 -2.586242,-0.297723 z M 107.23984,82.2916 c 0.78858,-0.205492 1.88273,-0.191978 2.43145,0.03003 0.54872,0.22201 -0.0965,0.39014 -1.43377,0.373623 -1.33729,-0.01652 -1.78625,-0.198162 -0.99768,-0.403655 z m 14.37066,-0.613515 c 0,-1.109875 -0.42325,-1.326789 -1.82359,-0.934584 -2.82122,0.790164 -9.16655,1.580674 -8.7127,1.085439 0.22289,-0.243206 1.82685,-0.665887 3.56436,-0.939291 1.73753,-0.273405 4.01361,-0.71156 5.05798,-0.973679 1.32539,-0.332652 2.05375,-0.07291 2.41176,0.860067 0.28211,0.735155 0.2855,1.564063 0.007,1.842015 -0.2777,0.277952 -0.50511,-0.145033 -0.50511,-0.939967 z"
         id="path967"
         inkscape:connector-curvature="0" />
    </g>
    <path
       style="fill:url(#linearGradient1041);stroke:none;stroke-width:0.26458332px;stroke-linecap:butt;stroke-linejoin:miter;stroke-opacity:1;fill-opacity:1;"
       d="m 43.169195,153.17598 0.111676,4.67586 -7.087055,4.7247 -60.759673,48.38096 c 0,0 -9.515371,10.07295 -20.874328,2.05487 -11.358954,-8.01809 -79.100375,-55.53851 -79.100375,-55.53851 l -0.0603,-4.29788 z"
       id="path1033"
       inkscape:connector-curvature="0" />
    <path
       style="fill:url(#linearGradient1051);stroke:none;stroke-width:0.26458332px;stroke-linecap:butt;stroke-linejoin:miter;stroke-opacity:1;fill-opacity:1;"
       d="m -124.54056,157.47386 -0.0603,103.49641 168.983968,-0.40525 -1.10226,-102.71318 -67.846727,53.10566 c 0,0 -10.433482,8.71625 -20.788688,3.02381 -10.355205,-5.69245 -79.186013,-56.50745 -79.186013,-56.50745 z"
       id="path1043"
       inkscape:connector-curvature="0" />
    <path
       style="fill:#cfcfd0;stroke:none;stroke-width:0.26458332px;stroke-linecap:butt;stroke-linejoin:miter;stroke-opacity:1;fill-opacity:1;"
       d="m -127.06827,252.86543 -20.63134,0.33095 -0.74625,-193.35617 82.559556,-0.240551 -76.706356,1.870887 -4.0595,0.564332 c 0,0 -0.75596,187.098212 1.13392,188.137642 1.88989,1.03944 6.89807,1.51191 6.89807,1.51191 l 12.39837,1.181 z"
       id="path1053"
       inkscape:connector-curvature="0" />
    <path
       style="fill:#b3b4b4;stroke:none;stroke-width:0.26458332px;stroke-linecap:butt;stroke-linejoin:miter;stroke-opacity:1;fill-opacity:1;"
       d="m -3.838822,150.71436 -0.014261,-90.87415 -79.138477,0.293988 -41.96132,1.069078 115.7277077,0.26727 c 0,0 2.9399653,-0.26727 3.7417745,3.741773 0.8018092,4.009043 0.066818,86.060791 0.066818,86.060791 z"
       id="path1055"
       inkscape:connector-curvature="0" />
    <path
       style="fill:#f3f3f3;fill-opacity:1;stroke:none;stroke-width:5.39932537;stroke-miterlimit:4;stroke-dasharray:none;stroke-opacity:0"
       d="m 183.69438,308.25093 c -1.81261,-1.54359 -3.30152,-5.09599 -3.89189,-9.28572 -1.09462,-7.76819 -0.20818,-8.58725 2.86401,-2.6463 4.12069,7.96856 21.931,13.09102 28.58901,8.22256 3.49257,-2.55383 3.89954,-14.13115 0.61233,-17.4193 -1.26659,-1.26695 -7.69516,-3.86502 -14.28572,-5.77349 -13.67537,-3.96008 -17.74566,-6.51407 -21.48076,-13.47858 -7.43627,-13.86572 1.07705,-26.3474 20.48051,-30.02719 4.07515,-0.77284 10.44594,-1.00234 14.15731,-0.51001 6.54527,0.86826 6.79469,1.08076 8.30403,7.0749 2.16032,8.57938 2.1507,8.58975 -3.42516,3.69409 -12.1303,-10.65055 -27.8759,-8.34732 -27.8759,4.07761 0,6.94905 3.00117,9.47312 16.0512,13.4995 17.56582,5.41966 23.06912,9.35687 25.45295,18.20973 2.85113,10.58829 -5.02875,21.68943 -17.93272,25.26354 -9.15798,2.53655 -24.15691,2.04707 -27.6192,-0.90134 z"
       id="path1063"
       inkscape:connector-curvature="0"
       transform="matrix(0.26458333,0,0,0.26458333,-162.90514,40.570078)" />
    <path
       style="fill:#f3f3f3;fill-opacity:1;stroke:none;stroke-width:5.39932537;stroke-miterlimit:4;stroke-dasharray:none;stroke-opacity:0"
       d="m 244.88501,301.08072 c 0,-0.77469 0.94764,-2.195 2.10588,-3.15624 5.09108,-4.22523 -3.06246,-52.40566 -10.20402,-60.297 -1.2983,-1.43459 -1.93364,-3.03525 -1.41188,-3.55701 1.97414,-1.97414 19.36104,-4.9123 33.82151,-5.71539 14.67926,-0.81525 15.12797,-0.7485 19.45756,2.89461 13.6146,11.45593 7.05744,29.19393 -12.48849,33.78308 -12.21809,2.86865 -12.70913,3.33632 -12.70913,12.10399 0,10.22565 1.70829,14.22024 7.02268,16.42153 8.0925,3.35203 5.72909,4.80413 -10.59411,6.50911 -4.71429,0.49242 -10.01786,1.23877 -11.78572,1.65857 -1.76785,0.4198 -3.21428,0.12943 -3.21428,-0.64525 z m 28.78628,-39.01621 c 7.96253,-4.26141 8.548,-19.92297 0.98274,-26.28871 -4.73141,-3.98122 -15.35978,-5.04493 -18.04765,-1.80625 -1.62565,1.9588 3.02495,24.57844 5.72655,27.85281 1.81096,2.1949 7.46402,2.31564 11.33836,0.24215 z"
       id="path1065"
       inkscape:connector-curvature="0"
       transform="matrix(0.26458333,0,0,0.26458333,-162.90514,40.570078)" />
    <path
       style="fill:#f3f3f3;fill-opacity:1;stroke:none;stroke-width:5.39932537;stroke-miterlimit:4;stroke-dasharray:none;stroke-opacity:0"
       d=""
       id="path1067"
       inkscape:connector-curvature="0"
       transform="matrix(0.26458333,0,0,0.26458333,-162.90514,40.570078)" />
    <path
       style="fill:#f3f3f3;fill-opacity:1;stroke:none;stroke-width:5.39932537;stroke-miterlimit:4;stroke-dasharray:none;stroke-opacity:0"
       d="m 307.74215,290.25613 c 0,-0.27215 0.97135,-2.44192 2.15855,-4.82172 1.1872,-2.3798 4.68321,-16.78214 7.76891,-32.00519 6.25879,-30.8773 8.04508,-36.96401 10.84795,-36.96401 2.70027,0 11.60477,12.78139 26.71331,38.34385 7.12408,12.05341 13.81924,22.24774 14.87813,22.65407 3.58475,1.3756 9.15036,-1.05802 10.82494,-4.73331 1.30341,-2.86068 1.12083,-8.4986 -0.83882,-25.90253 -2.73079,-24.25244 -4.77686,-31.16944 -9.7895,-33.09466 -3.2411,-1.24482 -3.22983,-1.27787 1.00796,-2.95607 2.35714,-0.93344 7.61266,-2.04891 11.67892,-2.47881 6.63456,-0.70143 7.74465,-0.40242 10.81821,2.914 1.88375,2.03261 6.2711,9.00022 9.74965,15.4836 6.48475,12.08635 12.03157,19.76986 14.2721,19.76986 2.78612,0 5.56884,-8.94648 7.89428,-25.38022 1.34581,-9.51071 2.90827,-18.0387 3.47215,-18.95107 0.97923,-1.58443 16.31535,-5.51314 21.93246,-5.61852 1.93554,-0.0363 2.28873,0.44341 1.27777,1.73553 -2.82895,3.61569 -3.09494,9.2031 -1.11094,23.33665 2.66814,19.00731 6.31127,34.77564 8.97324,38.83831 1.1789,1.79924 1.7646,3.65022 1.30153,4.11329 -1.26077,1.26077 -16.82816,4.73528 -21.3308,4.76086 -3.90478,0.0222 -5.23133,-1.86105 -2.5,-3.54911 2.1013,-1.29868 1.73981,-15.67738 -0.75849,-30.17002 -2.73612,-15.87222 -3.29841,-17.68712 -5.47973,-17.68712 -1.14028,0 -3.56711,9.10044 -6.89233,25.84574 -2.8228,14.21516 -5.89886,26.59016 -6.83569,27.5 -2.53993,2.46676 -10.05782,-6.87602 -19.84175,-24.65811 -4.51928,-8.21371 -8.97876,-15.18798 -9.90994,-15.49837 -7.51938,-2.50646 -2.6071,40.23075 4.95785,43.1337 1.18843,0.45604 2.74562,0.46771 3.46043,0.0259 0.71481,-0.44178 1.29965,-0.16802 1.29965,0.60836 0,0.77638 -3.375,2.07313 -7.5,2.88168 -9.3837,1.8393 -42.41139,7.30391 -44.14429,7.30391 -0.70742,0 -0.39796,-1.76785 0.68769,-3.92857 2.24947,-4.47701 1.12702,-10.50816 -2.75374,-14.79636 -2.83433,-3.13189 -13.88899,-3.7362 -19.72276,-1.07816 -5.95333,2.71252 -9.02866,17.41017 -4.43977,21.21861 1.16992,0.97095 1.77484,2.33538 1.34426,3.03206 -0.72005,1.16508 -13.47139,1.89572 -13.47139,0.77191 z M 335.45522,257.52 c 1.23605,-1.97801 0.80824,-3.96425 -1.99878,-9.28008 -3.62326,-6.86156 -7.9446,-9.34612 -10.16409,-5.84384 -1.92923,3.04426 -1.52478,16.57831 0.52123,17.44193 3.49239,1.47415 10.09326,0.15982 11.64164,-2.31801 z"
       id="path1069"
       inkscape:connector-curvature="0"
       transform="matrix(0.26458333,0,0,0.26458333,-162.90514,40.570078)" />
  </g>
</svg>
